<svg width="1440" height="2073" viewBox="0 0 1440 2073" fill="none" xmlns="http://www.w3.org/2000/svg">
<path d="M3324.94 1944.62C3316.05 1371.09 2567.26 914.466 1970.34 847.466C1282.45 770.327 962.43 1229.32 458.33 1014.84C-1.7101 819.282 29.8111 336.82 -311.462 217.683C-625.103 108.209 -1171.11 334.302 -2189.95 1663.07" stroke="url(#paint0_linear_643_4953)" stroke-opacity="0.05" stroke-width="5" stroke-miterlimit="10"/>
<path d="M-2157.8 1731.58C-1151.74 422.254 -604.051 185.011 -284.242 282.214C-47.2568 354.586 17.1467 598.784 184.048 804.178C266.997 909.538 374.807 992.642 497.8 1046.03C900.629 1221.23 1183.8 979.704 1645.2 918.411C1762.85 902.444 1881.97 900.364 2000.1 912.215C2600.58 970.471 3346.45 1378.33 3370.15 1932.86" stroke="url(#paint1_linear_643_4953)" stroke-opacity="0.05" stroke-width="5" stroke-miterlimit="10"/>
<path d="M-2125.52 1799.9C-1132.26 510.122 -583.192 261.79 -257.906 346.735C-18.7982 409.197 52.5289 642.995 220.969 839.198C306.603 941.473 414.454 1022.84 536.299 1077.1C932.845 1253.59 1212.55 1039.09 1674.83 983.441C1792.34 969.058 1911.02 966.884 2028.98 976.953C2632.88 1028.33 3375.98 1385.46 3414.49 1920.99" stroke="url(#paint2_linear_643_4953)" stroke-opacity="0.05" stroke-width="5" stroke-miterlimit="10"/>
<path d="M-2093.31 1868.02C-1113.09 598.054 -562.359 338.767 -231.172 411.21C10.2287 463.98 88.1145 687.137 258.374 874.281C346.49 973.393 454.288 1053.05 574.893 1108.18C965.544 1286.01 1240.93 1098.34 1704.56 1048.49C1822.01 1035.44 1940.4 1033.08 2058.28 1041.45C2665.64 1084.86 3405.83 1392.34 3459.15 1908.87" stroke="url(#paint3_linear_643_4953)" stroke-opacity="0.05" stroke-width="5" stroke-miterlimit="10"/>
<path d="M-2061.16 1936.62C-1093.71 685.908 -541.733 415.812 -204.353 475.79C39.0366 518.93 123.967 731.505 295.985 909.286C386.65 1005.29 494.595 1083.34 614.167 1139.34C998.924 1318.52 1270.26 1157.8 1735.45 1113.67C1852.58 1102.2 1970.42 1099.76 2087.92 1106.38C2698.84 1141.84 3436.12 1399.76 3504.33 1897.31" stroke="url(#paint4_linear_643_4953)" stroke-opacity="0.05" stroke-width="5" stroke-miterlimit="10"/>
<path d="M-2029.38 2004.98C-1074.43 773.753 -519.64 483.461 -177.52 540.275C66.7184 580.558 159.906 775.196 333.39 944.368C426.573 1037.11 534.662 1113.54 653.151 1170.47C1032.01 1350.99 1299.11 1217.2 1765.16 1178.81C1882.09 1168.67 1999.55 1166.07 2116.8 1171.02C2731.33 1198.14 3465.66 1406.8 3548.67 1885.45" stroke="url(#paint5_linear_643_4953)" stroke-opacity="0.05" stroke-width="5" stroke-miterlimit="10"/>
<path d="M-1996.73 2073.45C-1055.06 861.706 -500.562 570.587 -150.724 604.26C96.2065 629.271 195.968 819.492 370.882 979.557C466.469 1068.99 574.713 1143.84 692.124 1201.7C1065.09 1383.55 1328.25 1276.64 1795.27 1244C1911.98 1235.3 2029.07 1232.6 2146.06 1235.91C2764.14 1255.07 3495.6 1413.79 3593.38 1873.72" stroke="url(#paint6_linear_643_4953)" stroke-opacity="0.05" stroke-width="5" stroke-miterlimit="10"/>
<path d="M-1964.56 2141.86C-1035.97 949.529 -480.009 647.431 -123.964 669.331C124.808 684.298 232.331 862.94 408.396 1014.55C506.313 1100.6 614.764 1173.84 731.143 1232.53C1098.11 1415.82 1357.3 1335.97 1825.42 1308.8C1934.32 1302.6 2050.33 1298.08 2175.37 1300.31C2797.14 1311.23 3525.5 1421.07 3638.12 1861.81" stroke="url(#paint7_linear_643_4953)" stroke-opacity="0.05" stroke-width="5" stroke-miterlimit="10"/>
<path d="M-1932.39 2210.27C-1016.41 1037.5 -459.59 725.339 -97.2068 733.607C153.397 739.418 268.779 906.494 446.116 1049.48C546.371 1132.09 655.08 1203.86 770.43 1263.6C1131.5 1448.22 1386.57 1395.13 1855.82 1373.93C1965.07 1368.96 2080.76 1364.59 2205.03 1365.05C2829.61 1367.73 3555.42 1428.25 3682.86 1849.9" stroke="url(#paint8_linear_643_4953)" stroke-opacity="0.05" stroke-width="5" stroke-miterlimit="10"/>
<path d="M-1900.11 2278.59C-997.029 1125.36 -439.142 803.053 -70.4082 798.381C181.917 795.122 305.693 950.302 483.318 1084.63C585.771 1163.75 694.72 1234.08 809.003 1294.87C1164.27 1480.85 1415.3 1454.71 1885.67 1438.78C1994.77 1434.98 2110.56 1430.63 2234.05 1429.4C2862.96 1423.54 3585.41 1434.85 3727.64 1837.59" stroke="url(#paint9_linear_643_4953)" stroke-opacity="0.05" stroke-width="5" stroke-miterlimit="10"/>
<path d="M-1867.94 2347C-977.747 1213.2 -418.722 880.965 -43.8684 862.831C210.167 850.598 341.971 993.64 520.613 1119.79C625.263 1195.28 734.537 1264.15 847.791 1325.98C1197.07 1513.28 1444.06 1514 1915.53 1504.34C2024.95 1501.96 2140.46 1497.47 2263.06 1494.66C2895.61 1480.15 3614.97 1442.48 3772.21 1826.25" stroke="url(#paint10_linear_643_4953)" stroke-opacity="0.05" stroke-width="5" stroke-miterlimit="10"/>
<path d="M-1835.77 2415.41C-958.381 1301.16 -398.109 958.898 -16.8434 927.339C238.987 906.241 378.941 1036.96 558.211 1154.9C661.27 1222.65 766.893 1291.21 886.968 1357.13C1230.36 1545.68 1473.3 1573.45 1945.84 1569.45C2055.39 1568.37 2170.71 1563.76 2292.72 1559.39C2928.91 1536.26 3645.29 1449.61 3817.22 1814.47" stroke="url(#paint11_linear_643_4953)" stroke-opacity="0.05" stroke-width="5" stroke-miterlimit="10"/>
<path d="M-1803.59 2483.82C-939.046 1389.4 -378.195 1036.94 9.88314 991.909C267.52 961.85 415.941 1080.09 595.718 1189.99C701.801 1254.86 807.91 1321.9 925.955 1388.26C1263.42 1578.44 1502.26 1632.77 1975.95 1634.54C2085.63 1634.86 2200.87 1630.14 2321.81 1624.06C2961.56 1592.08 3675.03 1456.67 3861.76 1802.63" stroke="url(#paint12_linear_643_4953)" stroke-opacity="0.05" stroke-width="5" stroke-miterlimit="10"/>
<path d="M-1771.62 2552.2C-919.729 1476.95 -357.23 1115.22 36.6034 1056.48C296.011 1017.75 452.946 1123.12 633.206 1225.18C742.436 1286.98 848.921 1352.59 964.535 1419.43C1296.24 1610.67 1530.8 1692.23 2006.04 1699.83C2115.96 1701.36 2230.92 1696.51 2351.06 1688.94C2994.5 1647.94 3704.95 1463.75 3906.48 1790.81" stroke="url(#paint13_linear_643_4953)" stroke-opacity="0.05" stroke-width="5" stroke-miterlimit="10"/>
<path d="M-1739.14 2620.55C-900.345 1564.81 -336.962 1193.6 63.4402 1120.96C324.728 1073.48 490.092 1165.88 670.628 1260.17C783.017 1318.8 890.049 1383.2 1003.92 1450.52C1329.54 1643.07 1560.26 1751.51 2036.17 1764.82C2151.06 1766.85 2265.99 1762.99 2380.48 1753.26C3027.37 1703.7 3735.16 1471.07 3951.22 1778.9" stroke="url(#paint14_linear_643_4953)" stroke-opacity="0.05" stroke-width="5" stroke-miterlimit="10"/>
<path d="M-1706.97 2688.96C-880.978 1652.77 -315.886 1271.79 89.8824 1185.4C353.038 1129.26 526.953 1208.5 708.226 1295.27C823.786 1350.65 931.17 1413.8 1042.91 1481.64C1362.73 1675.55 1589.3 1810.93 2066.09 1829.89C2180.7 1833.37 2295.42 1829.47 2409.53 1818.21C3060.29 1758.86 3764.79 1478.12 3996.09 1766.7" stroke="url(#paint15_linear_643_4953)" stroke-opacity="0.05" stroke-width="5" stroke-miterlimit="10"/>
<path d="M-1674.8 2757.36C-861.696 1740.61 -294.895 1350.66 117.005 1249.92C381.81 1185.29 564.422 1250.99 745.643 1330.25C864.386 1382.27 972.085 1444.48 1081.79 1512.76C1395.62 1708 1618.26 1870.25 2096.4 1895C2210.74 1899.82 2325.28 1895.78 2439 1882.93C3093.04 1814.7 3794.71 1485.3 4040.77 1755.27" stroke="url(#paint16_linear_643_4953)" stroke-opacity="0.05" stroke-width="5" stroke-miterlimit="10"/>
<path d="M-1642.53 2825.79C-842.375 1828.95 -274.642 1429.15 143.73 1314.49C410.694 1241.24 601.626 1293.26 783.051 1365.33C905.39 1413.85 1013.11 1475.07 1120.78 1543.89C1428.73 1740.27 1647.2 1929.66 2126.5 1960.19C2240.57 1966.28 2354.95 1962.1 2468.26 1947.72C3125.84 1870.15 3824.64 1492.39 4085.5 1743.46" stroke="url(#paint17_linear_643_4953)" stroke-opacity="0.05" stroke-width="5" stroke-miterlimit="10"/>
<path d="M-1610.36 2894.19C-823.433 1916.36 -253.833 1507.89 170.513 1379.36C439.418 1297.66 638.694 1335.8 820.479 1401.01C945.698 1446.23 1054.25 1506.37 1159.69 1575.6C1461.73 1773.52 1676.17 1989.67 2156.57 2025.67C2270.35 2033.03 2384.58 2028.71 2497.49 2012.79C3158.61 1925.79 3854.97 1500.21 4130.17 1732.03" stroke="url(#paint18_linear_643_4953)" stroke-opacity="0.05" stroke-width="5" stroke-miterlimit="10"/>
<path d="M-1578.19 2962.6C-803.677 2004.36 -232.926 1586.66 197.284 1443.54C468.336 1353.32 675.883 1377.38 858.054 1435.52C986.553 1476.6 1095.24 1536.46 1198.72 1606.34C1494.77 1805.59 1705.18 2048.6 2186.71 2090.57C2300.2 2099.25 2414.31 2094.79 2526.79 2077.29C3191.39 1980.54 3884.48 1506.65 4174.94 1719.82" stroke="url(#paint19_linear_643_4953)" stroke-opacity="0.05" stroke-width="5" stroke-miterlimit="10"/>
<defs>
<linearGradient id="paint0_linear_643_4953" x1="749.697" y1="340.203" x2="542.667" y2="2003.25" gradientUnits="userSpaceOnUse">
<stop stop-color="white"/>
<stop offset="1" stop-color="white" stop-opacity="0"/>
</linearGradient>
<linearGradient id="paint1_linear_643_4953" x1="783.392" y1="408.652" x2="576.332" y2="2071.94" gradientUnits="userSpaceOnUse">
<stop stop-color="white"/>
<stop offset="1" stop-color="white" stop-opacity="0"/>
</linearGradient>
<linearGradient id="paint2_linear_643_4953" x1="816.761" y1="476.572" x2="609.635" y2="2140.39" gradientUnits="userSpaceOnUse">
<stop stop-color="white"/>
<stop offset="1" stop-color="white" stop-opacity="0"/>
</linearGradient>
<linearGradient id="paint3_linear_643_4953" x1="850.304" y1="543.86" x2="643.056" y2="2208.66" gradientUnits="userSpaceOnUse">
<stop stop-color="white"/>
<stop offset="1" stop-color="white" stop-opacity="0"/>
</linearGradient>
<linearGradient id="paint4_linear_643_4953" x1="884.207" y1="610.634" x2="676.708" y2="2277.45" gradientUnits="userSpaceOnUse">
<stop stop-color="white"/>
<stop offset="1" stop-color="white" stop-opacity="0"/>
</linearGradient>
<linearGradient id="paint5_linear_643_4953" x1="917.62" y1="676.205" x2="709.754" y2="2345.97" gradientUnits="userSpaceOnUse">
<stop stop-color="white"/>
<stop offset="1" stop-color="white" stop-opacity="0"/>
</linearGradient>
<linearGradient id="paint6_linear_643_4953" x1="951.726" y1="741.367" x2="743.432" y2="2414.57" gradientUnits="userSpaceOnUse">
<stop stop-color="white"/>
<stop offset="1" stop-color="white" stop-opacity="0"/>
</linearGradient>
<linearGradient id="paint7_linear_643_4953" x1="985.602" y1="806.38" x2="776.866" y2="2483.13" gradientUnits="userSpaceOnUse">
<stop stop-color="white"/>
<stop offset="1" stop-color="white" stop-opacity="0"/>
</linearGradient>
<linearGradient id="paint8_linear_643_4953" x1="1019.67" y1="869.85" x2="810.299" y2="2551.7" gradientUnits="userSpaceOnUse">
<stop stop-color="white"/>
<stop offset="1" stop-color="white" stop-opacity="0"/>
</linearGradient>
<linearGradient id="paint9_linear_643_4953" x1="1053.84" y1="932.951" x2="843.797" y2="2620.17" gradientUnits="userSpaceOnUse">
<stop stop-color="white"/>
<stop offset="1" stop-color="white" stop-opacity="0"/>
</linearGradient>
<linearGradient id="paint10_linear_643_4953" x1="1088.05" y1="994.817" x2="877.182" y2="2688.73" gradientUnits="userSpaceOnUse">
<stop stop-color="white"/>
<stop offset="1" stop-color="white" stop-opacity="0"/>
</linearGradient>
<linearGradient id="paint11_linear_643_4953" x1="1122.59" y1="1055.68" x2="910.76" y2="2757.32" gradientUnits="userSpaceOnUse">
<stop stop-color="white"/>
<stop offset="1" stop-color="white" stop-opacity="0"/>
</linearGradient>
<linearGradient id="paint12_linear_643_4953" x1="1157.04" y1="1115.36" x2="944.101" y2="2825.87" gradientUnits="userSpaceOnUse">
<stop stop-color="white"/>
<stop offset="1" stop-color="white" stop-opacity="0"/>
</linearGradient>
<linearGradient id="paint13_linear_643_4953" x1="1191.63" y1="1173.81" x2="977.436" y2="2894.42" gradientUnits="userSpaceOnUse">
<stop stop-color="white"/>
<stop offset="1" stop-color="white" stop-opacity="0"/>
</linearGradient>
<linearGradient id="paint14_linear_643_4953" x1="1226.68" y1="1230.61" x2="1011.03" y2="2962.91" gradientUnits="userSpaceOnUse">
<stop stop-color="white"/>
<stop offset="1" stop-color="white" stop-opacity="0"/>
</linearGradient>
<linearGradient id="paint15_linear_643_4953" x1="1261.84" y1="1285.69" x2="1044.51" y2="3031.48" gradientUnits="userSpaceOnUse">
<stop stop-color="white"/>
<stop offset="1" stop-color="white" stop-opacity="0"/>
</linearGradient>
<linearGradient id="paint16_linear_643_4953" x1="1297.2" y1="1338.83" x2="1077.95" y2="3100.05" gradientUnits="userSpaceOnUse">
<stop stop-color="white"/>
<stop offset="1" stop-color="white" stop-opacity="0"/>
</linearGradient>
<linearGradient id="paint17_linear_643_4953" x1="1338.57" y1="1344.08" x2="1111.43" y2="3168.62" gradientUnits="userSpaceOnUse">
<stop stop-color="white"/>
<stop offset="1" stop-color="white" stop-opacity="0"/>
</linearGradient>
<linearGradient id="paint18_linear_643_4953" x1="1380.41" y1="1345.08" x2="1144.87" y2="3237.19" gradientUnits="userSpaceOnUse">
<stop stop-color="white"/>
<stop offset="1" stop-color="white" stop-opacity="0"/>
</linearGradient>
<linearGradient id="paint19_linear_643_4953" x1="1422.63" y1="1343.05" x2="1178.3" y2="3305.75" gradientUnits="userSpaceOnUse">
<stop stop-color="white"/>
<stop offset="1" stop-color="white" stop-opacity="0"/>
</linearGradient>
</defs>
</svg>
