<svg width="112" height="148" viewBox="0 0 112 148" fill="none" xmlns="http://www.w3.org/2000/svg">
<path d="M74.9375 138.462H75.7106V147.861H74.9375V138.462Z" fill="white"/>
<path d="M73.7656 138.462H74.1514V147.861H73.7656V138.462Z" fill="white"/>
<path d="M72.7969 138.462H72.9905V147.861H72.7969V138.462Z" fill="white"/>
<path d="M111.207 147.051H111.995V147.92H111.207V147.051Z" fill="white"/>
<path d="M14.6523 138.462H15.424V147.861H14.6523V138.462Z" fill="white"/>
<path d="M25.4771 138.462H30.0806V139.251H25.4771C23.3646 139.251 21.6466 141.004 21.6466 143.162C21.6466 145.319 23.3646 147.071 25.4771 147.071H29.309V143.556H26.783V142.767H30.082V147.861H25.4785C22.9365 147.861 20.875 145.756 20.875 143.162C20.875 140.567 22.9336 138.462 25.4771 138.462Z" fill="white"/>
<path d="M36.9883 138.462H37.7599V147.861H36.9883V138.462Z" fill="white"/>
<path d="M59.588 147.071H67.0757V147.861H57.8672L65.3563 139.251H57.8672V138.462H67.0757L59.588 147.071Z" fill="white"/>
<path d="M85.9927 138.462H90.5962V139.251H85.9927C83.8802 139.251 82.1623 141.004 82.1623 143.162C82.1623 145.319 83.8802 147.071 85.9927 147.071H89.8246V143.556H87.2986V142.767H90.5977V147.861H85.9941C83.4522 147.861 81.3906 145.756 81.3906 143.162C81.3906 140.567 83.4507 138.462 85.9927 138.462Z" fill="white"/>
<path d="M9.20849 143.16C9.20849 145.755 7.14696 147.859 4.60352 147.859H0V138.462H4.60352C7.14696 138.462 9.20849 140.564 9.20849 143.16Z" fill="white"/>
<path d="M53.8765 143.16C53.8765 145.755 51.8149 147.859 49.2715 147.859H44.668V138.462H49.2715C51.8149 138.462 53.8765 140.564 53.8765 143.16Z" fill="white"/>
<path d="M106.711 143.16V147.859H102.495V143.156H101.722V147.859H97.5039V143.16C97.5039 140.564 99.5654 138.462 102.107 138.462C104.649 138.462 106.711 140.564 106.711 143.16Z" fill="white"/>
<path d="M60.4818 30.8178C60.4818 47.8383 46.9423 61.6383 30.243 61.6383H0V-0.00268555H30.243C46.9423 -0.00268555 60.4818 13.7929 60.4818 30.8178Z" fill="white"/>
<path d="M110.368 101.049V131.869H82.6691V101.023H77.5897L77.6067 131.869H49.8906V101.049C49.8906 84.0239 63.4301 70.2283 80.1294 70.2283C96.8287 70.2283 110.368 84.0239 110.368 101.049Z" fill="white"/>
<path d="M29.1641 70.1995H39.7137L39.6882 131.84H29.1641V70.1995Z" fill="white"/>
<path d="M13.2578 70.1995H18.5326L18.5199 131.84H13.2578V70.1995Z" fill="white"/>
<path d="M0 70.1995H2.6374V131.84H0V70.1995Z" fill="white"/>
<path d="M110.378 36.1521L103.188 30.8105V13.2056L110.378 6.05884V36.1564V36.1521Z" fill="white"/>
<path fill-rule="evenodd" clip-rule="evenodd" d="M72.5669 7.77456L70.6303 -0.00415039H110.28L69.3392 49.1744H60.2166L94.8128 7.77456H72.5669Z" fill="white"/>
<path fill-rule="evenodd" clip-rule="evenodd" d="M50.1172 61.2621L55.736 54.5396L110.28 54.6434V61.6386L50.1172 61.2621Z" fill="white"/>
</svg>
