<svg width="1440" height="3338" viewBox="0 0 1440 3338" fill="none" xmlns="http://www.w3.org/2000/svg">
<g opacity="0.5">
<path d="M3948.36 1539.83C3894.54 965.652 3112.24 565.834 2511.88 544.811C1820.02 520.655 1536.95 1005.45 1017.57 829.432C543.592 668.97 537.202 182.946 187.626 89.9068C-133.645 4.41724 -660.277 273.236 -1571.88 1683.85" stroke="white" stroke-opacity="0.1" stroke-width="5" stroke-miterlimit="10"/>
<path d="M-1534.47 1750.22C-634.088 360.095 -106.651 79.971 219.808 152.684C461.747 206.91 545.096 446.699 727.59 639.674C818.545 738.868 932.543 813.834 1059.35 857.84C1474.69 1002.32 1738.07 738.343 2193.27 641.248C2309.31 616.151 2427.9 604.86 2546.61 607.609C3149.83 619.594 3925.41 970.758 3992.5 1524.75" stroke="white" stroke-opacity="0.1" stroke-width="5" stroke-miterlimit="10"/>
<path d="M-1496.94 1816.4C-607.793 446.856 -79.8492 155.51 251.108 215.513C494.387 259.642 583.823 488.473 767.131 672.115C860.522 768.011 974.423 841.233 1100.15 886.198C1509.33 1032.46 1771.38 795.842 2227.89 704.333C2343.92 680.834 2462.07 669.483 2580.46 670.46C3186.55 675.28 3955.39 975.818 4035.76 1509.62" stroke="white" stroke-opacity="0.1" stroke-width="5" stroke-miterlimit="10"/>
<path d="M-1459.51 1882.38C-581.8 533.701 -53.0598 231.246 282.801 278.262C527.606 312.499 622.747 530.157 807.158 704.578C902.776 797.112 1016.49 868.626 1141.05 914.56C1544.46 1062.62 1804.29 853.223 2262.61 767.422C2378.69 745.265 2496.53 733.755 2614.71 733.033C3223.63 729.602 3985.68 980.597 4079.32 1494.21" stroke="white" stroke-opacity="0.1" stroke-width="5" stroke-miterlimit="10"/>
<path d="M-1422.09 1948.86C-555.607 620.455 -26.4704 307.069 314.588 341.112C560.621 365.543 661.956 572.051 847.386 736.952C945.301 826.172 1059.04 896.06 1182.64 942.954C1580.27 1092.81 1838.18 910.748 2298.51 830.565C2414.38 810.013 2531.67 798.464 2649.34 796.019C3261.18 784.341 4016.44 985.891 4123.45 1479.33" stroke="white" stroke-opacity="0.1" stroke-width="5" stroke-miterlimit="10"/>
<path d="M-1385.06 2015.11C-529.51 707.204 0.845793 373.356 346.381 403.862C593.037 425.363 701.198 613.254 887.416 769.414C987.584 855.168 1101.34 923.424 1223.93 971.333C1615.79 1122.99 1871.59 968.25 2333.22 893.751C2449 874.547 2565.9 862.862 2683.19 858.769C3297.98 838.451 4046.43 990.852 4166.71 1464.2" stroke="white" stroke-opacity="0.1" stroke-width="5" stroke-miterlimit="10"/>
<path d="M-1347.15 2081.41C-503.318 794.05 26.6816 459.395 378.099 466.109C626.241 472.094 740.61 655.051 927.54 801.973C1029.85 884.226 1143.63 950.886 1265.22 999.805C1651.31 1153.26 1905.29 1025.76 2368.33 956.95C2484.01 939.213 2600.53 927.457 2717.43 921.73C3335.14 893.164 4076.82 995.727 4210.36 1449.18" stroke="white" stroke-opacity="0.1" stroke-width="5" stroke-miterlimit="10"/>
<path d="M-1309.73 2147.68C-477.418 880.787 53.1822 535.011 409.864 529.446C659.056 525.222 780.255 695.973 967.669 834.337C1072.03 913.013 1185.9 978.049 1306.52 1027.88C1686.74 1183.24 1938.89 1083.17 2403.46 1019.76C2511.55 1005.13 2626.85 991.628 2751.68 984.2C3372.43 947.097 4107.19 1000.9 4254.01 1433.97" stroke="white" stroke-opacity="0.1" stroke-width="5" stroke-miterlimit="10"/>
<path d="M-1272.31 2213.95C-451.033 967.637 79.6342 611.701 441.567 591.982C691.867 578.438 819.994 736.99 1008 866.603C1114.43 941.661 1228.43 1005.2 1348.11 1056.17C1722.56 1213.32 1972.7 1140.38 2438.86 1082.87C2547.39 1069.44 2662.39 1056.12 2786.32 1046.98C3409.21 1001.39 4137.56 1005.96 4297.67 1418.76" stroke="white" stroke-opacity="0.1" stroke-width="5" stroke-miterlimit="10"/>
<path d="M-1234.78 2280.14C-424.836 1054.38 106.098 688.199 473.348 655.018C724.653 632.249 860.216 778.23 1047.83 899.145C1156.18 970.537 1270.31 1032.61 1389.01 1084.72C1757.78 1243.67 2006 1198.07 2473.69 1145.76C2582.16 1133.51 2697.26 1120.2 2820.28 1109.43C3446.82 1054.94 4167.97 1010.44 4341.34 1403.15" stroke="white" stroke-opacity="0.1" stroke-width="5" stroke-miterlimit="10"/>
<path d="M-1197.36 2346.41C-398.741 1141.12 132.549 764.885 504.846 717.737C757.152 685.841 899.768 819.036 1087.76 931.683C1198.01 999.265 1312.35 1059.85 1430.1 1113.07C1793.01 1273.82 2039.3 1255.46 2508.58 1209.33C2617.48 1198.49 2732.29 1185.06 2854.31 1172.77C3483.79 1109.34 4198.03 1015.98 4384.87 1388.51" stroke="white" stroke-opacity="0.1" stroke-width="5" stroke-miterlimit="10"/>
<path d="M-1159.94 2412.68C-372.552 1227.96 159.197 841.579 536.833 780.477C790.234 739.556 940.01 859.774 1127.98 964.135C1236.04 1024.08 1346.71 1084.65 1471.59 1141.44C1828.73 1303.9 2073.1 1312.96 2543.89 1272.43C2653.03 1262.88 2767.64 1249.35 2888.94 1235.54C3521.38 1163.18 4228.8 1020.96 4428.81 1373.4" stroke="white" stroke-opacity="0.1" stroke-width="5" stroke-miterlimit="10"/>
<path d="M-1122.52 2478.95C-346.371 1315.09 185.155 918.435 568.527 843.298C823.027 793.255 980.266 900.311 1168.11 996.578C1278.96 1053.4 1390 1112.41 1512.89 1169.8C1864.24 1334.35 2106.61 1370.35 2579.01 1335.52C2688.38 1327.36 2802.9 1313.73 2922.99 1298.28C3558.3 1216.78 4258.99 1025.91 4472.27 1358.26" stroke="white" stroke-opacity="0.1" stroke-width="5" stroke-miterlimit="10"/>
<path d="M-1085.3 2545.21C-320.262 1401.52 212.181 995.434 600.217 906.114C855.803 847.242 1020.52 940.743 1208.23 1029.11C1321.98 1082.62 1433.28 1140.16 1553.78 1198.23C1899.47 1364.29 2139.71 1427.92 2614.11 1398.8C2723.82 1391.84 2838.05 1378.1 2957.23 1361.23C3595.51 1270.39 4289.37 1030.85 4515.92 1343.12" stroke="white" stroke-opacity="0.1" stroke-width="5" stroke-miterlimit="10"/>
<path d="M-1047.57 2611.39C-294.063 1488.25 238.518 1072.6 632.014 968.831C888.788 901.037 1060.89 980.879 1248.27 1061.44C1364.92 1111.54 1476.67 1167.82 1595.48 1226.5C1935.2 1394.36 2173.72 1485.22 2649.23 1461.79C2763.93 1454.94 2878.2 1442.18 2991.59 1423.58C3632.63 1323.9 4320.04 1036.01 4559.58 1327.88" stroke="white" stroke-opacity="0.1" stroke-width="5" stroke-miterlimit="10"/>
<path d="M-1010.15 2677.66C-267.873 1575.08 265.647 1149.49 663.414 1031.53C921.372 954.907 1100.97 1020.9 1288.5 1093.87C1408.05 1140.46 1520.05 1195.46 1636.77 1254.84C1970.82 1424.5 2207.32 1542.71 2684.15 1524.86C2798.68 1519.49 2912.75 1506.72 3025.63 1486.61C3669.77 1376.81 4350.13 1040.93 4603.35 1312.34" stroke="white" stroke-opacity="0.1" stroke-width="5" stroke-miterlimit="10"/>
<path d="M-972.731 2743.92C-241.776 1661.8 292.746 1227.07 695.502 1094.24C954.438 1008.99 1141.65 1060.74 1328.53 1126.19C1450.99 1169.16 1563.24 1223.19 1677.97 1283.16C2006.14 1454.63 2240.82 1600.08 2719.46 1587.94C2833.83 1583.93 2947.7 1571.03 3060.07 1549.35C3706.78 1430.4 4380.51 1045.95 4646.98 1297.58" stroke="white" stroke-opacity="0.1" stroke-width="5" stroke-miterlimit="10"/>
<path d="M-935.21 2810.16C-215.598 1748.9 319.081 1304.17 727.201 1156.88C987.615 1062.81 1182.05 1100.2 1368.57 1158.44C1494.34 1197.63 1606.53 1250.68 1719.27 1311.35C2041.68 1484.44 2274.33 1657.43 2754.57 1650.99C2868.77 1648.28 2982.47 1635.25 3094.32 1612.07C3743.83 1483.47 4410.9 1050.72 4690.65 1282.27" stroke="white" stroke-opacity="0.1" stroke-width="5" stroke-miterlimit="10"/>
<path d="M-897.789 2876.4C-189.872 1835.1 345.993 1381.51 758.981 1219.83C1020.67 1117.12 1222.33 1139.96 1408.68 1191.29C1537.06 1226.95 1649.99 1278.86 1760.54 1340.13C2077.17 1515.23 2307.91 1715.39 2789.67 1714.35C2903.69 1712.93 3017.24 1699.77 3128.55 1675.08C3780.85 1536.74 4441.75 1056.18 4734.29 1267.35" stroke="white" stroke-opacity="0.1" stroke-width="5" stroke-miterlimit="10"/>
<path d="M-860.37 2942.63C-163.289 1921.84 373 1458.84 790.693 1282.07C1053.85 1170.64 1262.66 1178.73 1448.83 1222.94C1580.16 1254.21 1693.21 1305.83 1801.86 1367.91C2112.62 1544.82 2341.44 1772.25 2824.8 1777.11C2938.63 1777.04 3052.05 1763.75 3162.81 1737.5C3817.82 1589.11 4471.68 1060.31 4777.97 1251.62" stroke="white" stroke-opacity="0.1" stroke-width="5" stroke-miterlimit="10"/>
<path d="M-822.842 3008.77C-137.087 2008.47 399.992 1536.68 822.105 1344.61C1086.63 1224.65 1302.49 1217.77 1488.48 1255.17C1622.76 1282.14 1736.12 1333.29 1842.68 1395.76C2147.77 1574.6 2374.66 1829.4 2859.54 1839.85C2973.21 1841.03 3086.54 1827.61 3196.78 1799.92C3854.05 1640.66 4501.68 1065.13 4821.44 1236.17" stroke="white" stroke-opacity="0.1" stroke-width="5" stroke-miterlimit="10"/>
<path d="M-785.524 3075C309.026 1484.69 1044.43 1207.3 1529.01 1287.44C2057.99 1374.9 2238.5 1881.01 2895.04 1902.94C3665.22 1928.55 4476.02 1044.32 4865.3 1220.83" stroke="white" stroke-opacity="0.1" stroke-width="5" stroke-miterlimit="10"/>
</g>
</svg>
