<svg width="24" height="24" viewBox="0 0 24 24" fill="none" xmlns="http://www.w3.org/2000/svg">
<path d="M21.0296 10.71C21.3801 9.85204 21.4973 8.9166 21.3691 7.99873C21.241 7.08085 20.8722 6.21324 20.3001 5.48408C19.7281 4.75491 18.9732 4.19016 18.1122 3.84722C17.2512 3.50428 16.3148 3.39537 15.3981 3.53156C14.83 2.79976 14.0783 2.23132 13.2195 1.88397C12.3606 1.53661 11.4252 1.42271 10.5081 1.55382C9.59096 1.68493 8.72487 2.05639 7.99776 2.63047C7.27064 3.20456 6.70838 3.96083 6.36808 4.82249C5.44983 4.94819 4.58122 5.31472 3.85052 5.88486C3.11981 6.45499 2.55306 7.20839 2.20785 8.06852C1.86264 8.92864 1.75128 9.86481 1.88508 10.7819C2.01888 11.699 2.39307 12.5644 2.96964 13.29C2.68828 13.9795 2.55683 14.721 2.58401 15.4652C2.6112 16.2093 2.79639 16.9392 3.1273 17.6064C3.4582 18.2735 3.92725 18.8626 4.5033 19.3346C5.07934 19.8065 5.7492 20.1505 6.46839 20.3437C6.91417 20.4658 7.37403 20.5288 7.8362 20.5312C8.09257 20.531 8.34858 20.5119 8.60214 20.4741C9.17036 21.2056 9.92202 21.7738 10.7808 22.1209C11.6396 22.468 12.5749 22.5818 13.4919 22.4506C14.4089 22.3194 15.2748 21.9479 16.0018 21.3739C16.7287 20.7999 17.2909 20.0437 17.6312 19.1822C18.5495 19.0565 19.4181 18.6899 20.1488 18.1198C20.8795 17.5497 21.4462 16.7963 21.7914 15.9362C22.1366 15.076 22.248 14.1399 22.1142 13.2228C21.9804 12.3057 21.6062 11.4403 21.0296 10.7147V10.71ZM13.4996 12.8662L11.9996 13.7325L10.4996 12.8662V11.1337L11.9996 10.2675L13.4996 11.1337V12.8662ZM17.1418 5.10281C18.0869 5.35545 18.8958 5.96739 19.3961 6.8081C19.8963 7.6488 20.0482 8.65169 19.8193 9.60281C19.7303 9.54374 19.6403 9.48656 19.5465 9.43312L15.3746 7.01999C15.2606 6.95417 15.1313 6.91951 14.9996 6.91951C14.868 6.91951 14.7387 6.95417 14.6246 7.01999L10.4996 9.40218V7.66968L14.2965 5.47781C14.7225 5.23039 15.1933 5.06986 15.6816 5.00549C16.17 4.94113 16.6663 4.9742 17.1418 5.10281ZM3.82933 8.14968C4.3074 7.31612 5.08898 6.69946 6.01089 6.42843C6.00433 6.53531 5.99964 6.64218 5.99964 6.74999V11.5669C5.99961 11.6985 6.03425 11.8279 6.10008 11.942C6.16591 12.056 6.2606 12.1507 6.37464 12.2166L10.4996 14.5978L8.99964 15.4687L5.20277 13.2722C4.34149 12.7749 3.71304 11.9558 3.45564 10.9952C3.19825 10.0345 3.33301 9.01098 3.83027 8.14968H3.82933ZM12.7496 21C11.7896 21.0026 10.8655 20.6349 10.1696 19.9734C10.2634 19.9256 10.3571 19.875 10.4509 19.8206L14.6246 17.4122C14.7385 17.3464 14.8331 17.2519 14.899 17.138C14.9648 17.0241 14.9995 16.895 14.9996 16.7634V12L16.4996 12.8662V17.25C16.4996 18.2446 16.1046 19.1984 15.4013 19.9016C14.698 20.6049 13.7442 21 12.7496 21Z" fill="url(#paint0_linear_610_192277)"/>
<defs>
<linearGradient id="paint0_linear_610_192277" x1="1.83008" y1="12.0022" x2="22.1692" y2="12.0022" gradientUnits="userSpaceOnUse">
<stop stop-color="#0C03AD"/>
<stop offset="1" stop-color="#050337"/>
</linearGradient>
</defs>
</svg>
