<svg width="37" height="37" viewBox="0 0 37 37" fill="none" xmlns="http://www.w3.org/2000/svg">
<circle cx="18.5" cy="18.5" r="18" fill="#A100FF"/>
<path d="M26.7261 14.6204C26.7261 15.5598 26.7315 16.5045 26.7261 17.4438C26.7261 17.6773 26.7098 17.9216 26.6665 18.1497C26.5418 18.8284 26.1625 19.1922 25.4851 19.3062C25.3172 19.3333 25.1492 19.355 24.9812 19.355C23.6915 19.3605 22.4018 19.3605 21.1067 19.355C20.917 19.355 20.7273 19.3333 20.5431 19.2899C19.8495 19.1379 19.481 18.7306 19.3943 18.0248C19.3726 17.8293 19.3618 17.6339 19.3618 17.4384C19.3618 15.5435 19.3564 13.6485 19.3618 11.7482C19.3618 11.5147 19.378 11.2704 19.4214 11.0423C19.5514 10.3582 19.9362 9.989 20.6244 9.88041C20.7924 9.85326 20.9604 9.83697 21.1283 9.83154C22.4072 9.83697 23.6807 9.83697 24.9595 9.8424C25.1492 9.8424 25.3388 9.86412 25.5231 9.90213C26.2438 10.0487 26.6448 10.4885 26.6881 11.2324C26.7207 11.7645 26.7152 12.302 26.7207 12.8341C26.7261 13.4259 26.7261 14.0232 26.7261 14.6204Z" fill="white"/>
<path d="M17.6362 22.3958C17.6362 23.346 17.6416 24.2908 17.6362 25.2409C17.6362 25.4744 17.62 25.7187 17.5766 25.9468C17.4466 26.6363 17.0672 27.0001 16.379 27.1142C16.2111 27.1413 16.0431 27.163 15.8751 27.163C14.5908 27.1684 13.3065 27.1684 12.0222 27.163C11.8272 27.163 11.6321 27.1413 11.4424 27.0979C10.7488 26.9404 10.3857 26.5223 10.3045 25.8165C10.2828 25.621 10.2719 25.4255 10.2719 25.2301C10.2719 23.3406 10.2665 21.4511 10.2719 19.5616C10.2719 19.3281 10.2882 19.0838 10.3315 18.8557C10.4616 18.1608 10.8518 17.7915 11.5508 17.6884C11.7188 17.6612 11.8868 17.6449 12.0548 17.6449C13.3228 17.6395 14.5962 17.6395 15.8642 17.6449C16.0539 17.6449 16.2436 17.6667 16.4278 17.6992C17.1485 17.8404 17.5495 18.2856 17.6037 19.0241C17.6362 19.4964 17.6308 19.9688 17.6362 20.4466C17.6416 21.0982 17.6362 21.7497 17.6362 22.3958Z" fill="white"/>
<path d="M23.0358 27.1631C22.3964 27.1631 21.7515 27.1685 21.1121 27.1631C20.9441 27.1631 20.7761 27.1414 20.6081 27.1142C19.8766 26.9894 19.4376 26.5278 19.3997 25.7786C19.3618 25.0021 19.3726 24.2257 19.3672 23.4438C19.3672 23.1343 19.3726 22.8194 19.3943 22.5099C19.4593 21.7227 19.9145 21.2449 20.6948 21.1471C20.8953 21.12 21.0958 21.1037 21.3017 21.1037C22.4614 21.0983 23.6264 21.0983 24.7861 21.1037C25.0354 21.1037 25.2846 21.1254 25.5285 21.1743C26.26 21.3263 26.6448 21.7552 26.6881 22.5045C26.7261 23.1181 26.7152 23.737 26.7206 24.3506C26.7206 24.7849 26.7315 25.2193 26.699 25.6483C26.6177 26.6473 26.13 27.1034 25.1221 27.1522C25.0625 27.1577 25.0028 27.1577 24.9378 27.1577C24.3038 27.1631 23.6698 27.1631 23.0358 27.1631Z" fill="white"/>
<path d="M13.9618 9.83691C14.6066 9.83691 15.246 9.83691 15.8909 9.84234C16.0697 9.84234 16.254 9.86406 16.4328 9.89664C17.1427 10.0432 17.5653 10.4667 17.5924 11.1889C17.6304 12.3019 17.6358 13.4259 17.5924 14.5389C17.5653 15.3045 17.0668 15.7606 16.2919 15.8529C16.086 15.8801 15.8746 15.8963 15.6633 15.8963C14.5199 15.9018 13.3765 15.9072 12.2331 15.8963C11.9297 15.8909 11.6208 15.8692 11.3282 15.7932C10.705 15.6357 10.3473 15.1905 10.304 14.5009C10.2715 13.958 10.2769 13.415 10.2769 12.8721C10.2769 12.3562 10.2606 11.8404 10.2986 11.3301C10.369 10.3636 10.8621 9.88578 11.8375 9.84777C12.542 9.82605 13.2519 9.84777 13.9618 9.84777C13.9618 9.84234 13.9618 9.84234 13.9618 9.83691Z" fill="white"/>
</svg>
