<svg width="24" height="24" viewBox="0 0 24 24" fill="none" xmlns="http://www.w3.org/2000/svg">
<path d="M20.6573 8.71875C20.3012 8.71875 19.9596 8.86022 19.7077 9.11206C19.4559 9.36389 19.3145 9.70543 19.3145 10.0616V16.1473C19.3145 16.5034 19.4559 16.845 19.7077 17.0968C19.9596 17.3487 20.3012 17.4901 20.6573 17.4901C21.0134 17.4901 21.355 17.3487 21.6069 17.0968C21.8587 16.845 22.0002 16.5034 22.0002 16.1473V10.0616C22.0002 9.70543 21.8587 9.36389 21.6069 9.11206C21.355 8.86022 21.0134 8.71875 20.6573 8.71875Z" fill="#8FC71A"/>
<path d="M3.34285 8.71875C2.98671 8.71875 2.64514 8.86022 2.39331 9.11206C2.14149 9.36389 2 9.70543 2 10.0616V16.1473C2 16.5034 2.14149 16.845 2.39331 17.0968C2.64514 17.3487 2.98671 17.4901 3.34285 17.4901C3.69899 17.4901 4.04057 17.3487 4.29239 17.0968C4.54422 16.845 4.68571 16.5034 4.68571 16.1473V10.0616C4.68571 9.70543 4.54422 9.36389 4.29239 9.11206C4.04057 8.86022 3.69899 8.71875 3.34285 8.71875Z" fill="#8FC71A"/>
<path d="M5.65625 8.71875V17.8615C5.65625 18.0623 5.69578 18.2611 5.77261 18.4465C5.84942 18.632 5.96201 18.8005 6.10395 18.9424C6.24589 19.0844 6.4144 19.197 6.59986 19.2738C6.7853 19.3505 6.98407 19.3901 7.18482 19.3901H8.15624V22.633C8.15624 22.9891 8.29771 23.3307 8.54956 23.5825C8.80138 23.8344 9.14295 23.9758 9.4991 23.9758C9.85524 23.9758 10.1968 23.8344 10.4487 23.5825C10.7005 23.3307 10.8419 22.9891 10.8419 22.633V19.3901H13.1562V22.633C13.1562 22.9891 13.2977 23.3307 13.5495 23.5825C13.8014 23.8344 14.1429 23.9758 14.4991 23.9758C14.8552 23.9758 15.1968 23.8344 15.4486 23.5825C15.7005 23.3307 15.8419 22.9891 15.8419 22.633V19.3901H16.8134C17.2188 19.3901 17.6075 19.2291 17.8942 18.9424C18.1809 18.6558 18.3419 18.267 18.3419 17.8615V8.71875H5.65625Z" fill="#8FC71A"/>
<path d="M18.1705 6.81893C17.7501 5.40838 16.8176 4.20589 15.5562 3.44751L15.3419 3.31894L15.1134 3.20465L15.3705 2.7618L16.1276 1.33323C16.1419 1.29253 16.1428 1.24827 16.1299 1.20707C16.1171 1.16589 16.0912 1.12996 16.0562 1.10466H15.9562C15.9198 1.1063 15.8841 1.11613 15.8519 1.13345C15.8198 1.15076 15.7919 1.1751 15.7705 1.20466L14.9991 2.53323L14.7562 2.97608L14.5277 2.87608L14.2848 2.79037C12.8044 2.27657 11.1938 2.27657 9.71338 2.79037L9.48481 2.87608L9.24195 2.97608L8.9991 2.53323L8.22767 1.10466C8.21453 1.08122 8.19691 1.06057 8.1758 1.04395C8.1547 1.0273 8.13053 1.01497 8.10466 1.00769C8.07878 1.00039 8.05173 0.99826 8.02504 1.00142C7.99836 1.00457 7.97254 1.01296 7.9491 1.02609C7.92564 1.03923 7.90501 1.05685 7.88837 1.07796C7.87173 1.09906 7.85941 1.12325 7.85211 1.1491C7.84483 1.17497 7.84269 1.20203 7.84586 1.22872C7.84901 1.2554 7.85739 1.28122 7.87053 1.30466L8.62767 2.73323L8.88481 3.17608L8.65624 3.29037L8.44196 3.41894C7.17449 4.18044 6.24478 5.39623 5.84196 6.81893C5.73046 7.19016 5.66804 7.57437 5.65625 7.96178H18.3419C18.3279 7.57561 18.2704 7.19223 18.1705 6.81893ZM9.14195 6.06179C9.02894 6.06179 8.91845 6.02827 8.82448 5.96549C8.73051 5.9027 8.65727 5.81346 8.61403 5.70905C8.57077 5.60463 8.55946 5.48973 8.5815 5.37889C8.60356 5.26803 8.65797 5.16622 8.73788 5.0863C8.81781 5.00639 8.91963 4.95196 9.03047 4.92992C9.14131 4.90788 9.25624 4.91919 9.36067 4.96243C9.4651 5.00569 9.55424 5.07893 9.61709 5.1729C9.67981 5.26687 9.71338 5.37735 9.71338 5.49036C9.71338 5.64192 9.65324 5.78726 9.54595 5.89443C9.43881 6.00159 9.29352 6.06179 9.14195 6.06179ZM14.8562 6.06179C14.7432 6.06179 14.6326 6.02827 14.5388 5.96549C14.4448 5.9027 14.3715 5.81346 14.3282 5.70905C14.2851 5.60463 14.2737 5.48973 14.2958 5.37889C14.3178 5.26803 14.3722 5.16622 14.4522 5.0863C14.5321 5.00639 14.6339 4.95196 14.7448 4.92992C14.8556 4.90788 14.9705 4.91919 15.0749 4.96243C15.1794 5.00569 15.2685 5.07893 15.3314 5.1729C15.3941 5.26687 15.4276 5.37735 15.4276 5.49036C15.4276 5.64192 15.3675 5.78726 15.2602 5.89443C15.1531 6.00159 15.0078 6.06179 14.8562 6.06179Z" fill="#8FC71A"/>
</svg>
