<svg width="37" height="37" viewBox="0 0 37 37" fill="none" xmlns="http://www.w3.org/2000/svg">
<circle cx="18.5" cy="18.5" r="18" fill="#A100FF"/>
<path d="M24.9515 13.385C25.3812 13.385 25.7888 13.385 26.1919 13.385C27.4059 13.3894 28.2565 14.2351 28.2565 15.4419C28.2565 18.3445 28.2565 21.2472 28.2565 24.1498C28.2565 25.5372 27.2552 26.5283 25.8597 26.5327C21.1768 26.5327 16.494 26.5327 11.8111 26.5327C10.5972 26.5327 9.74219 25.6826 9.74219 24.4801C9.74219 20.1504 9.74219 15.8251 9.74219 11.4998C9.74219 10.2886 10.5928 9.43848 11.8067 9.43848C15.4972 9.43848 19.1876 9.43848 22.8825 9.43848C24.1053 9.43848 24.9515 10.2842 24.9559 11.5086C24.9515 12.1253 24.9515 12.7419 24.9515 13.385ZM24.9515 14.702C24.9515 14.7856 24.9515 14.8473 24.9515 14.909C24.9515 17.9878 24.9515 21.071 24.9515 24.1498C24.9515 24.1982 24.9515 24.2467 24.9515 24.2951C24.9825 24.8061 25.4166 25.2157 25.9306 25.2201C26.5021 25.2245 26.9318 24.7796 26.9318 24.1718C26.9318 21.4278 26.9318 18.6793 26.9318 15.9352C26.9318 15.737 26.9362 15.5388 26.9274 15.3406C26.9141 14.9971 26.6527 14.7196 26.316 14.7064C25.873 14.6887 25.4299 14.702 24.9515 14.702ZM17.3446 18.6441C18.7269 18.6441 20.1136 18.6441 21.4958 18.6441C21.5578 18.6441 21.6199 18.6485 21.6819 18.6441C22.0142 18.622 22.28 18.3622 22.3066 18.0362C22.3287 17.7147 22.1072 17.4108 21.7838 17.3447C21.6996 17.3271 21.6066 17.3315 21.518 17.3315C18.7402 17.3315 15.9668 17.3315 13.189 17.3315C13.1269 17.3315 13.0649 17.3271 13.0029 17.3359C12.7327 17.3623 12.5377 17.5033 12.4358 17.7499C12.2586 18.1904 12.5864 18.6441 13.0871 18.6441C14.5048 18.6441 15.9269 18.6441 17.3446 18.6441ZM17.3446 21.9299C18.5231 21.9299 19.7015 21.9299 20.88 21.9299C21.1502 21.9299 21.4161 21.9387 21.6863 21.9255C22.0097 21.9123 22.2711 21.6568 22.3066 21.3397C22.342 21.0225 22.1382 20.723 21.8237 20.6437C21.7262 20.6173 21.6199 20.6173 21.518 20.6173C18.7402 20.6173 15.9668 20.6173 13.189 20.6173C13.1269 20.6173 13.0649 20.6129 13.0029 20.6217C12.7327 20.6481 12.5377 20.7891 12.4358 21.0402C12.2586 21.4806 12.5864 21.9343 13.0915 21.9343C14.5092 21.9343 15.9269 21.9299 17.3446 21.9299ZM18.3503 14.0413C17.2471 14.0413 16.1484 14.0369 15.0453 14.0413C14.6598 14.0413 14.3719 14.332 14.3719 14.702C14.3763 15.0587 14.6598 15.3538 15.032 15.3538C17.2339 15.3582 19.4401 15.3582 21.642 15.3494C21.7971 15.3494 21.9787 15.2613 22.1028 15.16C22.3154 14.9839 22.3597 14.7284 22.2623 14.4685C22.1604 14.2042 21.9211 14.0457 21.6154 14.0457C20.5256 14.0413 19.4401 14.0413 18.3503 14.0413Z" fill="white"/>
</svg>
