<svg width="24" height="24" viewBox="0 0 24 24" fill="none" xmlns="http://www.w3.org/2000/svg">
<path d="M10.1254 17.625C10.1254 18.2183 9.94947 18.7984 9.61983 19.2917C9.29018 19.7851 8.82165 20.1696 8.27347 20.3966C7.72529 20.6237 7.12209 20.6831 6.54015 20.5674C5.9582 20.4516 5.42365 20.1659 5.0041 19.7463C4.58454 19.3268 4.29882 18.7922 4.18306 18.2103C4.06731 17.6283 4.12672 17.0251 4.35378 16.4769C4.58084 15.9288 4.96536 15.4602 5.45871 15.1306C5.95205 14.8009 6.53207 14.625 7.12542 14.625C7.92107 14.625 8.68413 14.9411 9.24674 15.5037C9.80935 16.0663 10.1254 16.8294 10.1254 17.625ZM5.03104 11.0306L6.37542 9.68531L7.71979 11.0306C7.86052 11.1714 8.05139 11.2504 8.25042 11.2504C8.44944 11.2504 8.64031 11.1714 8.78104 11.0306C8.92177 10.8899 9.00083 10.699 9.00083 10.5C9.00083 10.301 8.92177 10.1101 8.78104 9.96937L7.43573 8.625L8.78104 7.28063C8.92177 7.13989 9.00083 6.94902 9.00083 6.75C9.00083 6.55098 8.92177 6.36011 8.78104 6.21937C8.64031 6.07864 8.44944 5.99958 8.25042 5.99958C8.05139 5.99958 7.86052 6.07864 7.71979 6.21937L6.37542 7.56469L5.03104 6.21937C4.89031 6.07864 4.69944 5.99958 4.50042 5.99958C4.30139 5.99958 4.11052 6.07864 3.96979 6.21938C3.82906 6.36011 3.75 6.55098 3.75 6.75C3.75 6.94902 3.82906 7.13989 3.96979 7.28063L5.3151 8.625L3.96979 9.96937C3.82906 10.1101 3.75 10.301 3.75 10.5C3.75 10.699 3.82906 10.8899 3.96979 11.0306C4.11052 11.1714 4.30139 11.2504 4.50042 11.2504C4.69944 11.2504 4.89031 11.1714 5.03104 11.0306ZM20.1857 17.625L21.531 16.2806C21.6718 16.1399 21.7508 15.949 21.7508 15.75C21.7508 15.551 21.6718 15.3601 21.531 15.2194C21.3903 15.0786 21.1994 14.9996 21.0004 14.9996C20.8014 14.9996 20.6105 15.0786 20.4698 15.2194L19.1254 16.5647L17.781 15.2194C17.6403 15.0786 17.4494 14.9996 17.2504 14.9996C17.0514 14.9996 16.8605 15.0786 16.7198 15.2194C16.5791 15.3601 16.5 15.551 16.5 15.75C16.5 15.949 16.5791 16.1399 16.7198 16.2806L18.0651 17.625L16.7198 18.9694C16.5791 19.1101 16.5 19.301 16.5 19.5C16.5 19.699 16.5791 19.8899 16.7198 20.0306C16.8605 20.1714 17.0514 20.2504 17.2504 20.2504C17.4494 20.2504 17.6403 20.1714 17.781 20.0306L19.1254 18.6853L20.4698 20.0306C20.5395 20.1003 20.6222 20.1556 20.7132 20.1933C20.8043 20.231 20.9019 20.2504 21.0004 20.2504C21.099 20.2504 21.1965 20.231 21.2876 20.1933C21.3786 20.1556 21.4614 20.1003 21.531 20.0306C21.6007 19.9609 21.656 19.8782 21.6937 19.7872C21.7314 19.6961 21.7508 19.5985 21.7508 19.5C21.7508 19.4015 21.7314 19.3039 21.6937 19.2128C21.656 19.1218 21.6007 19.0391 21.531 18.9694L20.1857 17.625ZM15.531 4.71938L15.3107 4.5H17.2504C17.4493 4.5 17.6401 4.42098 17.7807 4.28033C17.9214 4.13968 18.0004 3.94891 18.0004 3.75C18.0004 3.55109 17.9214 3.36032 17.7807 3.21967C17.6401 3.07902 17.4493 3 17.2504 3H13.5004C13.3015 3 13.1107 3.07902 12.9701 3.21967C12.8294 3.36032 12.7504 3.55109 12.7504 3.75V7.5C12.7504 7.69891 12.8294 7.88968 12.9701 8.03033C13.1107 8.17098 13.3015 8.25 13.5004 8.25C13.6993 8.25 13.8901 8.17098 14.0307 8.03033C14.1714 7.88968 14.2504 7.69891 14.2504 7.5V5.56031L14.4698 5.78062C16.1507 7.46156 16.1479 9.09937 15.8489 10.1775C15.4139 11.7497 14.0339 13.1559 12.5676 13.5225C12.39 13.567 12.2349 13.6749 12.1314 13.8259C12.0279 13.9768 11.9831 14.1604 12.0056 14.3421C12.0281 14.5238 12.1162 14.6909 12.2534 14.8121C12.3906 14.9333 12.5674 15.0001 12.7504 15C12.812 14.9999 12.8734 14.9924 12.9332 14.9775C14.9217 14.4806 16.716 12.6713 17.2954 10.5778C17.8673 8.51063 17.241 6.43031 15.531 4.71938Z" fill="#A100FF"/>
</svg>
