<svg width="37" height="37" viewBox="0 0 37 37" fill="none" xmlns="http://www.w3.org/2000/svg">
<circle cx="18.5" cy="18.5" r="18" fill="#21005E"/>
<path d="M25.449 10H23.2326V9.25C23.2326 9.05109 23.1548 8.86032 23.0162 8.71967C22.8777 8.57902 22.6898 8.5 22.4938 8.5C22.2979 8.5 22.11 8.57902 21.9714 8.71967C21.8329 8.86032 21.755 9.05109 21.755 9.25V10H14.367V9.25C14.367 9.05109 14.2891 8.86032 14.1506 8.71967C14.012 8.57902 13.8241 8.5 13.6281 8.5C13.4322 8.5 13.2443 8.57902 13.1057 8.71967C12.9672 8.86032 12.8893 9.05109 12.8893 9.25V10H10.6729C10.281 10 9.9052 10.158 9.62809 10.4393C9.35099 10.7206 9.19531 11.1022 9.19531 11.5V26.5C9.19531 26.8978 9.35099 27.2794 9.62809 27.5607C9.9052 27.842 10.281 28 10.6729 28H25.449C25.8409 28 26.2168 27.842 26.4939 27.5607C26.771 27.2794 26.9267 26.8978 26.9267 26.5V11.5C26.9267 11.1022 26.771 10.7206 26.4939 10.4393C26.2168 10.158 25.8409 10 25.449 10ZM13.9976 24.25C13.7784 24.25 13.5641 24.184 13.3819 24.0604C13.1996 23.9368 13.0576 23.7611 12.9737 23.5555C12.8898 23.35 12.8679 23.1238 12.9106 22.9055C12.9534 22.6873 13.0589 22.4868 13.2139 22.3295C13.3689 22.1722 13.5664 22.065 13.7814 22.0216C13.9963 21.9782 14.2191 22.0005 14.4216 22.0856C14.6241 22.1708 14.7972 22.315 14.919 22.5C15.0408 22.685 15.1058 22.9025 15.1058 23.125C15.1058 23.4234 14.989 23.7095 14.7812 23.9205C14.5733 24.1315 14.2915 24.25 13.9976 24.25ZM18.061 24.25C17.8418 24.25 17.6275 24.184 17.4453 24.0604C17.2631 23.9368 17.121 23.7611 17.0371 23.5555C16.9533 23.35 16.9313 23.1238 16.9741 22.9055C17.0168 22.6873 17.1224 22.4868 17.2774 22.3295C17.4323 22.1722 17.6298 22.065 17.8448 22.0216C18.0598 21.9782 18.2826 22.0005 18.4851 22.0856C18.6876 22.1708 18.8607 22.315 18.9824 22.5C19.1042 22.685 19.1692 22.9025 19.1692 23.125C19.1692 23.4234 19.0524 23.7095 18.8446 23.9205C18.6368 24.1315 18.3549 24.25 18.061 24.25ZM18.061 20.5C17.8418 20.5 17.6275 20.434 17.4453 20.3104C17.2631 20.1868 17.121 20.0111 17.0371 19.8055C16.9533 19.6 16.9313 19.3738 16.9741 19.1555C17.0168 18.9373 17.1224 18.7368 17.2774 18.5795C17.4323 18.4222 17.6298 18.315 17.8448 18.2716C18.0598 18.2282 18.2826 18.2505 18.4851 18.3356C18.6876 18.4208 18.8607 18.565 18.9824 18.75C19.1042 18.935 19.1692 19.1525 19.1692 19.375C19.1692 19.6734 19.0524 19.9595 18.8446 20.1705C18.6368 20.3815 18.3549 20.5 18.061 20.5ZM22.1244 24.25C21.9052 24.25 21.691 24.184 21.5087 24.0604C21.3265 23.9368 21.1844 23.7611 21.1006 23.5555C21.0167 23.35 20.9947 23.1238 21.0375 22.9055C21.0803 22.6873 21.1858 22.4868 21.3408 22.3295C21.4958 22.1722 21.6932 22.065 21.9082 22.0216C22.1232 21.9782 22.346 22.0005 22.5485 22.0856C22.751 22.1708 22.9241 22.315 23.0459 22.5C23.1676 22.685 23.2326 22.9025 23.2326 23.125C23.2326 23.4234 23.1159 23.7095 22.908 23.9205C22.7002 24.1315 22.4183 24.25 22.1244 24.25ZM22.1244 20.5C21.9052 20.5 21.691 20.434 21.5087 20.3104C21.3265 20.1868 21.1844 20.0111 21.1006 19.8055C21.0167 19.6 20.9947 19.3738 21.0375 19.1555C21.0803 18.9373 21.1858 18.7368 21.3408 18.5795C21.4958 18.4222 21.6932 18.315 21.9082 18.2716C22.1232 18.2282 22.346 18.2505 22.5485 18.3356C22.751 18.4208 22.9241 18.565 23.0459 18.75C23.1676 18.935 23.2326 19.1525 23.2326 19.375C23.2326 19.6734 23.1159 19.9595 22.908 20.1705C22.7002 20.3815 22.4183 20.5 22.1244 20.5ZM25.449 14.5H10.6729V11.5H12.8893V12.25C12.8893 12.4489 12.9672 12.6397 13.1057 12.7803C13.2443 12.921 13.4322 13 13.6281 13C13.8241 13 14.012 12.921 14.1506 12.7803C14.2891 12.6397 14.367 12.4489 14.367 12.25V11.5H21.755V12.25C21.755 12.4489 21.8329 12.6397 21.9714 12.7803C22.11 12.921 22.2979 13 22.4938 13C22.6898 13 22.8777 12.921 23.0162 12.7803C23.1548 12.6397 23.2326 12.4489 23.2326 12.25V11.5H25.449V14.5Z" fill="white"/>
</svg>
