<svg width="32" height="32" viewBox="0 0 32 32" fill="none" xmlns="http://www.w3.org/2000/svg">
<path d="M26.7074 12.7071L16.7074 22.7071C16.6146 22.8001 16.5043 22.8738 16.3829 22.9241C16.2615 22.9745 16.1314 23.0004 15.9999 23.0004C15.8685 23.0004 15.7384 22.9745 15.617 22.9241C15.4956 22.8738 15.3853 22.8001 15.2924 22.7071L5.29245 12.7071C5.1048 12.5194 4.99939 12.2649 4.99939 11.9996C4.99939 11.7342 5.1048 11.4797 5.29245 11.2921C5.48009 11.1044 5.73458 10.999 5.99995 10.999C6.26531 10.999 6.5198 11.1044 6.70745 11.2921L15.9999 20.5858L25.2924 11.2921C25.3854 11.1992 25.4957 11.1255 25.6171 11.0752C25.7384 11.0249 25.8686 10.999 25.9999 10.999C26.1313 10.999 26.2614 11.0249 26.3828 11.0752C26.5042 11.1255 26.6145 11.1992 26.7074 11.2921C26.8004 11.385 26.8741 11.4953 26.9243 11.6167C26.9746 11.7381 27.0005 11.8682 27.0005 11.9996C27.0005 12.131 26.9746 12.2611 26.9243 12.3825C26.8741 12.5039 26.8004 12.6142 26.7074 12.7071Z" fill="#A100FF"/>
</svg>
