<svg width="24" height="24" viewBox="0 0 24 24" fill="none" xmlns="http://www.w3.org/2000/svg">
<path d="M13.5 9V7.5H12C11.8011 7.5 11.6103 7.57902 11.4697 7.71967C11.329 7.86032 11.25 8.05109 11.25 8.25V15.75C11.25 15.9489 11.329 16.1397 11.4697 16.2803C11.6103 16.421 11.8011 16.5 12 16.5H13.5V15C13.5 14.6022 13.658 14.2206 13.9393 13.9393C14.2206 13.658 14.6022 13.5 15 13.5H19.5C19.8978 13.5 20.2794 13.658 20.5607 13.9393C20.842 14.2206 21 14.6022 21 15V19.5C21 19.8978 20.842 20.2794 20.5607 20.5607C20.2794 20.842 19.8978 21 19.5 21H15C14.6022 21 14.2206 20.842 13.9393 20.5607C13.658 20.2794 13.5 19.8978 13.5 19.5V18H12C11.4033 18 10.831 17.7629 10.409 17.341C9.98705 16.919 9.75 16.3467 9.75 15.75V12.75H6.75V13.5C6.75 13.8978 6.59196 14.2794 6.31066 14.5607C6.02936 14.842 5.64782 15 5.25 15H2.25C1.85218 15 1.47064 14.842 1.18934 14.5607C0.908035 14.2794 0.75 13.8978 0.75 13.5V10.5C0.75 10.1022 0.908035 9.72064 1.18934 9.43934C1.47064 9.15804 1.85218 9 2.25 9H5.25C5.64782 9 6.02936 9.15804 6.31066 9.43934C6.59196 9.72064 6.75 10.1022 6.75 10.5V11.25H9.75V8.25C9.75 7.65326 9.98705 7.08097 10.409 6.65901C10.831 6.23705 11.4033 6 12 6H13.5V4.5C13.5 4.10218 13.658 3.72064 13.9393 3.43934C14.2206 3.15804 14.6022 3 15 3H19.5C19.8978 3 20.2794 3.15804 20.5607 3.43934C20.842 3.72064 21 4.10218 21 4.5V9C21 9.39782 20.842 9.77936 20.5607 10.0607C20.2794 10.342 19.8978 10.5 19.5 10.5H15C14.6022 10.5 14.2206 10.342 13.9393 10.0607C13.658 9.77936 13.5 9.39782 13.5 9Z" fill="#3A47F4"/>
</svg>
