<svg width="9" height="15" viewBox="0 0 9 15" fill="none" xmlns="http://www.w3.org/2000/svg">
<path fill-rule="evenodd" clip-rule="evenodd" d="M5.65566 14.4095C5.73298 14.4095 5.79566 14.3468 5.79566 14.2695V8.24683C5.79566 8.16951 5.85834 8.10683 5.93566 8.10683H7.82888C7.89913 8.10683 7.95851 8.05476 7.96768 7.9851L8.25428 5.80812C8.26532 5.72426 8.20005 5.64984 8.11548 5.64984H5.93566C5.85834 5.64984 5.79566 5.58716 5.79566 5.50984V4.08141C5.79566 3.37028 5.99616 2.88565 7.03702 2.88565L8.22244 2.88518C8.29974 2.88515 8.36238 2.82247 8.36238 2.74518V0.810792C8.36238 0.740316 8.31029 0.68094 8.24017 0.67387C7.91847 0.64143 7.22283 0.591309 6.43069 0.591309C4.51852 0.591309 3.20941 1.73612 3.20941 3.83808V5.50984C3.20941 5.58716 3.14673 5.64984 3.06941 5.64984H1.18687C1.10955 5.64984 1.04688 5.71252 1.04688 5.78984V7.96683C1.04688 8.04415 1.10956 8.10683 1.18687 8.10683H3.06941C3.14673 8.10683 3.20941 8.16951 3.20941 8.24683V14.2695C3.20941 14.3468 3.27209 14.4095 3.34941 14.4095H5.65566Z" stroke="#21005E"/>
</svg>
