<svg width="15" height="27" viewBox="0 0 15 27" fill="none" xmlns="http://www.w3.org/2000/svg">
<path fill-rule="evenodd" clip-rule="evenodd" d="M8.94925 25.4168C9.02657 25.4168 9.08925 25.3541 9.08925 25.2768V14.4111C9.08925 14.3338 9.15193 14.2711 9.22925 14.2711H12.7792C12.8494 14.2711 12.9088 14.219 12.918 14.1493L13.4531 10.0844C13.4642 10.0005 13.3989 9.92609 13.3143 9.92609H9.22925C9.15193 9.92609 9.08925 9.86341 9.08925 9.78609V7.15245C9.08925 5.89486 9.44383 5.03784 11.2845 5.03784L13.4884 5.03695C13.5657 5.03692 13.6283 4.97425 13.6283 4.89695V1.27387C13.6283 1.20339 13.5765 1.14397 13.5064 1.13634C12.9888 1.07994 11.6963 0.980469 10.2123 0.980469C6.83073 0.980469 4.51568 3.00498 4.51568 6.72212V9.78609C4.51568 9.86341 4.453 9.92609 4.37568 9.92609H0.831406C0.754086 9.92609 0.691406 9.98877 0.691406 10.0661V14.1311C0.691406 14.2084 0.754086 14.2711 0.831406 14.2711H4.37568C4.453 14.2711 4.51568 14.3338 4.51568 14.4111V25.2768C4.51568 25.3541 4.57836 25.4168 4.65568 25.4168H8.94925Z" stroke="white" stroke-width="1.4"/>
</svg>
