<svg width="37" height="37" viewBox="0 0 37 37" fill="none" xmlns="http://www.w3.org/2000/svg">
<circle cx="18.5" cy="18.5" r="18" fill="#A100FF"/>
<path d="M27.1352 13.3392C26.8511 12.4127 26.4569 11.537 25.6685 10.893C25.025 10.3619 24.2887 9.99473 23.5003 9.71226C21.9119 9.14732 20.2597 8.9496 18.5785 8.94395C16.677 8.9383 14.8161 9.17557 13.0421 9.88739C11.5117 10.5032 10.4218 11.5088 9.92902 13.1019C9.49423 14.5029 9.28553 15.9379 9.25075 17.3954C9.20437 19.1693 9.33771 20.9206 9.86525 22.6324C10.1145 23.4459 10.4508 24.2311 11.0885 24.8413C11.7783 25.5022 12.6131 25.9259 13.5117 26.248C15.1291 26.8185 16.8103 27.0163 18.5205 27.0276C19.0017 27.005 19.4886 26.9937 19.9698 26.9598C21.4133 26.8468 22.8104 26.5643 24.1438 25.9937C25.5931 25.3723 26.596 24.3724 27.0656 22.8696C27.5062 21.4629 27.7091 20.0224 27.7497 18.5535C27.7903 16.7853 27.6569 15.0396 27.1352 13.3392ZM20.8916 23.169C20.051 23.4854 19.222 23.83 18.2886 23.7622C17.5524 23.7057 16.8393 23.2707 16.6886 22.6437C16.6074 22.3216 16.6074 21.9488 16.6828 21.6211C16.8741 20.7907 17.1408 19.9715 17.3611 19.1411C17.4654 18.7343 17.5698 18.3219 17.6045 17.9095C17.6567 17.3559 17.3727 17.1073 16.7929 17.1355C16.6248 17.1468 16.4567 17.1694 16.2886 17.209C16.1321 17.2429 15.9871 17.2937 15.8016 17.3446C15.8654 17.1016 15.9234 16.887 15.9813 16.6666C16.8219 16.3672 17.6335 16.0283 18.5553 16.0791C19.3089 16.1243 20.0046 16.5649 20.1205 17.2203C20.1959 17.627 20.1669 18.079 20.0684 18.4857C19.8481 19.4066 19.5524 20.3048 19.3031 21.22C19.2336 21.4855 19.2046 21.768 19.1872 22.0448C19.1698 22.3951 19.3379 22.6267 19.6915 22.6606C20.0278 22.6945 20.3756 22.6493 20.7177 22.6267C20.822 22.6211 20.9206 22.5702 21.0539 22.5307C20.9959 22.7566 20.9495 22.96 20.8916 23.169ZM20.0916 14.8362C19.3901 15.0227 18.5959 14.7006 18.2944 14.1131C17.8654 13.277 18.4799 12.311 19.4944 12.2149C19.5582 12.2093 19.6162 12.2093 19.6568 12.2036C20.5379 12.2036 21.193 12.8081 21.1872 13.5764C21.1814 14.164 20.7466 14.6611 20.0916 14.8362Z" fill="white"/>
</svg>
