<svg width="14" height="14" viewBox="0 0 14 14" fill="none" xmlns="http://www.w3.org/2000/svg">
<g clip-path="url(#clip0_643_328701)">
<path fill-rule="evenodd" clip-rule="evenodd" d="M4.44997 0.268017C5.139 0.236297 5.35869 0.229248 7.11388 0.229248C8.86907 0.229248 9.08876 0.236884 9.77721 0.268017C10.4657 0.29915 10.9356 0.408996 11.3468 0.568185C11.7773 0.730898 12.168 0.985248 12.4911 1.3142C12.82 1.63669 13.0738 2.02673 13.2359 2.45789C13.3957 2.86908 13.5049 3.33901 13.5366 4.02628C13.5684 4.71649 13.5754 4.93618 13.5754 6.69079C13.5754 8.44597 13.5678 8.66567 13.5366 9.3547C13.5055 10.042 13.3957 10.5119 13.2359 10.9231C13.0738 11.3543 12.8196 11.745 12.4911 12.068C12.168 12.3969 11.7773 12.6507 11.3468 12.8128C10.9356 12.9726 10.4657 13.0818 9.77838 13.1136C9.08876 13.1453 8.86907 13.1523 7.11388 13.1523C5.35869 13.1523 5.139 13.1447 4.44997 13.1136C3.76269 13.0824 3.29276 12.9726 2.88157 12.8128C2.45037 12.6507 2.05968 12.3965 1.73671 12.068C1.40798 11.7453 1.15359 11.3548 0.991281 10.9237C0.832092 10.5125 0.722833 10.0426 0.691113 9.35529C0.659393 8.66508 0.652344 8.44539 0.652344 6.69079C0.652344 4.9356 0.65998 4.7159 0.691113 4.02746C0.722246 3.33901 0.832092 2.86908 0.991281 2.45789C1.15383 2.02678 1.40841 1.63629 1.73729 1.31361C2.05981 0.984955 2.4501 0.730571 2.88099 0.568185C3.29218 0.408996 3.76211 0.299738 4.44938 0.268017H4.44997ZM9.72493 1.43109C9.04353 1.39996 8.83911 1.3935 7.11388 1.3935C5.38865 1.3935 5.18423 1.39996 4.50283 1.43109C3.87254 1.45988 3.53067 1.56502 3.30275 1.65372C3.00141 1.77121 2.78583 1.91042 2.55967 2.13658C2.34529 2.34514 2.18031 2.59904 2.07682 2.87965C1.98812 3.10757 1.88297 3.44944 1.85419 4.07974C1.82306 4.76114 1.8166 4.96556 1.8166 6.69079C1.8166 8.41602 1.82306 8.62044 1.85419 9.30183C1.88297 9.93213 1.98812 10.274 2.07682 10.5019C2.1802 10.7821 2.34527 11.0365 2.55967 11.245C2.7682 11.4594 3.02255 11.6245 3.30275 11.7278C3.53067 11.8165 3.87254 11.9217 4.50283 11.9505C5.18423 11.9816 5.38806 11.9881 7.11388 11.9881C8.8397 11.9881 9.04353 11.9816 9.72493 11.9505C10.3552 11.9217 10.6971 11.8165 10.925 11.7278C11.2264 11.6104 11.4419 11.4711 11.6681 11.245C11.8825 11.0365 12.0476 10.7821 12.1509 10.5019C12.2396 10.274 12.3448 9.93213 12.3736 9.30183C12.4047 8.62044 12.4112 8.41602 12.4112 6.69079C12.4112 4.96556 12.4047 4.76114 12.3736 4.07974C12.3448 3.44944 12.2396 3.10757 12.1509 2.87965C12.0335 2.57831 11.8942 2.36273 11.6681 2.13658C11.4595 1.92221 11.2056 1.75723 10.925 1.65372C10.6971 1.56502 10.3552 1.45988 9.72493 1.43109ZM6.28857 8.6827C6.74949 8.87457 7.26272 8.90046 7.74061 8.75596C8.2185 8.61146 8.6314 8.30553 8.90878 7.89042C9.18617 7.47532 9.31084 6.97678 9.26149 6.47997C9.21214 5.98315 8.99184 5.51888 8.63822 5.16645C8.41279 4.94116 8.14022 4.76866 7.84012 4.66136C7.54002 4.55406 7.21987 4.51463 6.9027 4.54592C6.58554 4.5772 6.27926 4.67841 6.00591 4.84228C5.73255 5.00614 5.49893 5.22857 5.32186 5.49355C5.14479 5.75854 5.02868 6.05949 4.98188 6.37473C4.93508 6.68998 4.95875 7.01168 5.05121 7.31668C5.14366 7.62168 5.30258 7.90239 5.51654 8.13859C5.7305 8.3748 5.99417 8.56063 6.28857 8.6827ZM4.76541 4.34231C5.07381 4.0339 5.43994 3.78926 5.8429 3.62235C6.24585 3.45545 6.67773 3.36954 7.11388 3.36954C7.55003 3.36954 7.98191 3.45545 8.38487 3.62235C8.78782 3.78926 9.15395 4.0339 9.46236 4.34231C9.77076 4.65072 10.0154 5.01685 10.1823 5.4198C10.3492 5.82275 10.4351 6.25463 10.4351 6.69079C10.4351 7.12694 10.3492 7.55882 10.1823 7.96177C10.0154 8.36472 9.77076 8.73085 9.46236 9.03926C8.8395 9.66212 7.99473 10.012 7.11388 10.012C6.23303 10.012 5.38826 9.66212 4.76541 9.03926C4.14255 8.41641 3.79264 7.57163 3.79264 6.69079C3.79264 5.80994 4.14255 4.96516 4.76541 4.34231ZM11.1717 3.86416C11.2482 3.79206 11.3093 3.70537 11.3517 3.6092C11.394 3.51304 11.4166 3.40936 11.4181 3.30431C11.4196 3.19926 11.4001 3.09497 11.3606 2.99761C11.3211 2.90026 11.2624 2.81181 11.1882 2.73752C11.1139 2.66323 11.0254 2.6046 10.9281 2.5651C10.8307 2.52561 10.7264 2.50604 10.6214 2.50758C10.5163 2.50911 10.4126 2.5317 10.3165 2.57402C10.2203 2.61634 10.1336 2.67752 10.0615 2.75395C9.92131 2.90258 9.84455 3.1 9.84752 3.30431C9.8505 3.50862 9.93299 3.70372 10.0775 3.8482C10.222 3.99269 10.4171 4.07517 10.6214 4.07815C10.8257 4.08113 11.0231 4.00437 11.1717 3.86416Z" fill="black"/>
</g>
<defs>
<clipPath id="clip0_643_328701">
<rect width="12.9231" height="12.9231" fill="white" transform="translate(0.652344 0.229248)"/>
</clipPath>
</defs>
</svg>
