<svg width="24" height="24" viewBox="0 0 24 24" fill="none" xmlns="http://www.w3.org/2000/svg">
<path d="M11.6549 5.78794C11.3994 4.39528 12.0579 2.96208 12.8509 1.99622C13.7249 0.930515 15.2248 0.11325 16.5065 0.0234375C16.723 1.48355 16.1272 2.90616 15.3428 3.91242C14.5014 4.99345 13.0547 5.83176 11.6549 5.78794ZM19.1731 10.8343C19.5698 9.72773 20.3555 8.73215 21.5744 8.06044C20.3426 6.52331 18.6132 5.63091 16.9811 5.63091C14.8218 5.63091 13.9088 6.65967 12.409 6.65967C10.864 6.65967 9.69192 5.63091 7.82156 5.63091C5.98749 5.63091 4.03519 6.74878 2.79703 8.65795C2.34178 9.36366 2.03339 10.2404 1.8652 11.2169C1.39852 13.9562 2.09564 17.5242 4.17516 20.6924C5.18625 22.2297 6.53395 23.9613 8.29458 23.9764C9.86297 23.9917 10.3079 22.9736 12.4311 22.9631C14.5575 22.951 14.9604 23.9869 16.5267 23.972C18.2878 23.9571 19.7098 22.0408 20.7209 20.5036C21.4408 19.4006 21.7131 18.8434 22.2729 17.5963C19.4263 16.5228 18.2556 13.3861 19.1731 10.8343Z" fill="black"/>
</svg>
