<svg width="26" height="25" viewBox="0 0 26 25" fill="none" xmlns="http://www.w3.org/2000/svg">
<path d="M0.888517 4.9476C0.295108 4.39664 0 3.71466 0 2.90321C0 2.09177 0.296686 1.37977 0.888517 0.827227C1.48193 0.276268 2.24579 0 3.18167 0C4.11755 0 4.85143 0.276268 5.44326 0.827227C6.03667 1.37819 6.33178 2.07125 6.33178 2.90321C6.33178 3.73518 6.0351 4.39664 5.44326 4.9476C4.84985 5.49856 4.09703 5.77483 3.18167 5.77483C2.2663 5.77483 1.48193 5.49856 0.888517 4.9476ZM5.83308 8.10812V25H0.497123V8.10812H5.83308Z" fill="white"/>
<path d="M23.5967 9.77723C24.7599 11.0402 25.3407 12.7736 25.3407 14.9806V24.7021H20.273V15.6657C20.273 14.5527 19.9842 13.6876 19.4082 13.072C18.8321 12.4563 18.0557 12.1468 17.0835 12.1468C16.1113 12.1468 15.3348 12.4547 14.7587 13.072C14.1827 13.6876 13.8939 14.5527 13.8939 15.6657V24.7021H8.79626V8.06122H13.8939V10.2682C14.4099 9.53255 15.106 8.95159 15.9803 8.52377C16.8546 8.09594 17.8379 7.88281 18.9316 7.88281C20.8791 7.88281 22.4352 8.51428 23.5967 9.77723Z" fill="white"/>
</svg>
