<svg width="16" height="16" viewBox="0 0 16 16" fill="none" xmlns="http://www.w3.org/2000/svg">
<path d="M1.42098 3.77065C1.13982 3.46212 1 3.08021 1 2.6258C1 2.17139 1.14057 1.77267 1.42098 1.46325C1.70214 1.15471 2.06405 1 2.50748 1C2.9509 1 3.29861 1.15471 3.57902 1.46325C3.86018 1.77178 4 2.1599 4 2.6258C4 3.0917 3.85943 3.46212 3.57902 3.77065C3.29786 4.07919 2.94118 4.2339 2.50748 4.2339C2.07378 4.2339 1.70214 4.07919 1.42098 3.77065ZM3.76371 5.54055V15H1.23554V5.54055H3.76371Z" stroke="#21005E"/>
<path d="M14.0513 6.12634C14.6841 6.87723 15 7.90785 15 9.22003V15H12.2433V9.62737C12.2433 8.96565 12.0861 8.4513 11.7728 8.08524C11.4594 7.71918 11.037 7.5352 10.5082 7.5352C9.97931 7.5352 9.55689 7.71824 9.24352 8.08524C8.93016 8.4513 8.77305 8.96565 8.77305 9.62737V15H6V5.10608H8.77305V6.41826C9.05379 5.98086 9.43242 5.63545 9.90805 5.38108C10.3837 5.12672 10.9185 5 11.5135 5C12.5729 5 13.4194 5.37545 14.0513 6.12634Z" stroke="#21005E"/>
</svg>
