<svg width="24" height="24" viewBox="0 0 24 24" fill="none" xmlns="http://www.w3.org/2000/svg">
<path d="M11.249 15.1819V21.3075C11.2494 21.3606 11.2385 21.4132 11.217 21.4617C11.1955 21.5103 11.1639 21.5537 11.1244 21.5892C11.0849 21.6246 11.0383 21.6513 10.9877 21.6674C10.9371 21.6835 10.8836 21.6886 10.8309 21.6825C9.09789 21.4697 7.4535 20.7966 6.06862 19.7332C4.68375 18.6698 3.60895 17.255 2.9559 15.6356C2.93638 15.5864 2.92751 15.5336 2.92987 15.4807C2.93223 15.4278 2.94576 15.376 2.96959 15.3287C2.99341 15.2814 3.02698 15.2397 3.06809 15.2063C3.1092 15.1729 3.15691 15.1486 3.20809 15.135L9.12278 13.5469C9.19849 13.527 9.27853 13.5314 9.35166 13.5593C9.42479 13.5872 9.48736 13.6373 9.53059 13.7025C9.88871 14.2206 10.3997 14.6139 10.9922 14.8275C11.0667 14.8523 11.1316 14.8998 11.1777 14.9633C11.2237 15.0269 11.2487 15.1034 11.249 15.1819ZM12.0047 2.25002C11.9057 2.24928 11.8076 2.26813 11.7159 2.30549C11.6243 2.34285 11.5409 2.39797 11.4707 2.46769C11.4004 2.53741 11.3447 2.62034 11.3067 2.7117C11.2686 2.80307 11.249 2.90105 11.249 3.00002V8.25002C11.2475 8.44728 11.3244 8.63707 11.4627 8.7777C11.6011 8.91832 11.7896 8.99829 11.9868 9.00002C12.6952 8.99696 13.3817 9.24464 13.925 9.69919C14.4682 10.1537 14.8331 10.7858 14.955 11.4836C15.0769 12.1814 14.948 12.8997 14.5911 13.5116C14.2342 14.1234 13.6723 14.5893 13.005 14.8266C12.9305 14.8515 12.8657 14.8992 12.8197 14.963C12.7738 15.0268 12.7491 15.1033 12.749 15.1819V21.3075C12.7487 21.3605 12.7596 21.413 12.781 21.4615C12.8024 21.51 12.8339 21.5534 12.8733 21.5888C12.9128 21.6242 12.9592 21.6509 13.0097 21.6671C13.0602 21.6832 13.1135 21.6885 13.1662 21.6825C15.637 21.3903 17.9026 20.1646 19.499 18.2564C21.0955 16.3481 21.9021 13.9018 21.7537 11.4182C21.6052 8.9347 20.5129 6.60185 18.7005 4.8974C16.8881 3.19294 14.4926 2.24584 12.0047 2.25002ZM9.00465 11.7647C9.03956 11.3217 9.17245 10.892 9.39371 10.5066V10.5C9.46803 10.3717 9.50262 10.2242 9.49311 10.0761C9.4836 9.92812 9.43041 9.78625 9.34028 9.66846C9.27722 9.58743 9.19886 9.51959 9.10965 9.46877L4.57871 6.8494C4.49335 6.80017 4.39911 6.76825 4.3014 6.75546C4.20369 6.74267 4.10442 6.74926 4.00925 6.77486C3.91409 6.80046 3.82491 6.84456 3.7468 6.90464C3.66868 6.96472 3.60318 7.03961 3.55403 7.12502C2.46288 9.0148 2.03643 11.2157 2.34278 13.3763C2.35001 13.429 2.36838 13.4796 2.39667 13.5247C2.42496 13.5698 2.46253 13.6083 2.50687 13.6377C2.55121 13.6672 2.60131 13.6869 2.65384 13.6954C2.70637 13.704 2.76012 13.7013 2.81153 13.6875L8.7384 12.0938C8.81185 12.0735 8.87723 12.031 8.92557 11.972C8.9739 11.9131 9.00284 11.8407 9.0084 11.7647H9.00465Z" fill="url(#paint0_linear_610_192208)"/>
<defs>
<linearGradient id="paint0_linear_610_192208" x1="2.24609" y1="11.9675" x2="21.7711" y2="11.9675" gradientUnits="userSpaceOnUse">
<stop stop-color="#0C03AD"/>
<stop offset="1" stop-color="#050337"/>
</linearGradient>
</defs>
</svg>
