<svg width="22" height="22" viewBox="0 0 22 22" fill="none" xmlns="http://www.w3.org/2000/svg">
<path d="M18.9002 10.9462L4.45585 5.5581C4.33433 5.51277 4.19494 5.49323 4.05631 5.50208C3.91767 5.51094 3.78639 5.54777 3.68002 5.60765C3.57365 5.66753 3.49725 5.74761 3.46103 5.8372C3.42482 5.92678 3.43051 6.02158 3.47735 6.10895L6.20187 11.1905C6.25501 11.2896 6.25501 11.3979 6.20187 11.497L3.47735 16.5785C3.43051 16.6659 3.42482 16.7607 3.46103 16.8503C3.49725 16.9399 3.57365 17.02 3.68002 17.0799C3.78639 17.1397 3.91767 17.1766 4.05631 17.1854C4.19494 17.1943 4.33434 17.1747 4.45585 17.1294L18.9002 11.7413C19.0063 11.7018 19.0946 11.6441 19.1561 11.5742C19.2176 11.5043 19.25 11.4248 19.25 11.3438C19.25 11.2627 19.2176 11.1832 19.1561 11.1133C19.0946 11.0434 19.0063 10.9857 18.9002 10.9462Z" fill="url(#paint0_linear_643_205294)"/>
<defs>
<linearGradient id="paint0_linear_643_205294" x1="11.3437" y1="5.5" x2="9.87644" y2="14.879" gradientUnits="userSpaceOnUse">
<stop stop-color="#A100FF"/>
<stop offset="0.705117" stop-color="#21005E"/>
</linearGradient>
</defs>
</svg>
