<svg width="37" height="37" viewBox="0 0 37 37" fill="none" xmlns="http://www.w3.org/2000/svg">
<circle cx="18.5" cy="18.5" r="18" fill="white"/>
<path d="M28.3364 22.9685C28.1693 24.2388 27.5454 25.4049 26.5813 26.2489C25.6173 27.0928 24.379 27.557 23.0977 27.5547C15.6539 27.5547 9.59766 21.4985 9.59766 14.0547C9.59537 12.7735 10.0596 11.5351 10.9035 10.5711C11.7475 9.60702 12.9136 8.98315 14.1839 8.81599C14.5052 8.77677 14.8305 8.84249 15.1113 9.00334C15.3921 9.16419 15.6134 9.41155 15.742 9.70849L17.722 14.1288V14.1401C17.8206 14.3674 17.8612 14.6155 17.8405 14.8624C17.8197 15.1092 17.7381 15.3471 17.603 15.5547C17.5861 15.5801 17.5683 15.6035 17.5495 15.6269L15.5977 17.9407C16.2999 19.3676 17.7924 20.8469 19.238 21.551L21.5199 19.6094C21.5423 19.5906 21.5657 19.5731 21.5902 19.5569C21.7976 19.4186 22.0363 19.3341 22.2846 19.3112C22.533 19.2883 22.7831 19.3276 23.0124 19.4257L23.0245 19.4313L27.4411 21.4104C27.7386 21.5386 27.9865 21.7597 28.1479 22.0405C28.3093 22.3214 28.3754 22.6469 28.3364 22.9685Z" fill="#21005E"/>
</svg>
