<svg width="21" height="27" viewBox="0 0 21 27" fill="none" xmlns="http://www.w3.org/2000/svg">
<path d="M8.94009 0.0902937C4.55721 0.59116 0.18978 4.22112 0.00952034 9.40641C-0.103786 12.5724 0.774335 14.9476 3.71772 15.6145C4.99498 13.3079 3.30569 12.7991 3.04303 11.1304C1.96405 4.2923 10.7478 -0.371031 15.3445 4.40302C18.5248 7.70873 16.4312 17.879 11.3015 16.8219C6.38813 15.8122 13.7067 7.71664 9.78474 6.12705C6.59672 4.83534 4.90228 10.0786 6.41388 12.6831C5.52804 17.1619 3.61986 21.3824 4.3924 27C6.89801 25.1389 7.74265 21.5748 8.43537 17.8579C9.69461 18.6408 10.3667 19.4554 11.9736 19.5819C17.899 20.0511 21.208 13.5267 20.3995 7.50839C19.681 2.17284 14.4792 -0.54238 8.94009 0.0902937Z" fill="white"/>
</svg>
