<svg width="141" height="103" viewBox="0 0 141 103" fill="none" xmlns="http://www.w3.org/2000/svg">
<path d="M32.0472 41.0761C30.4797 41.0761 28.9755 41.3101 27.4783 41.5234C27.9633 39.9271 28.4623 38.3033 29.2637 36.8447C30.065 34.7255 31.3161 32.8884 32.5603 31.0376C33.6006 29.0354 35.4352 27.68 36.7848 25.9667C38.1976 24.3017 40.1236 23.1939 41.6489 21.8109C43.1461 20.3661 45.1072 19.6436 46.6676 18.6253C48.2984 17.7102 49.7183 16.6988 51.2365 16.2172L55.0252 14.6897L58.357 13.3343L54.9479 0L50.7515 0.990779C49.409 1.32104 47.7712 1.70634 45.9085 2.16733C44.0036 2.51135 41.9722 3.45397 39.7089 4.31403C37.4736 5.29105 34.8869 5.95157 32.483 7.52031C30.065 9.02024 27.2744 10.2725 24.8142 12.2816C22.4314 14.3526 19.5565 16.1484 17.4337 18.7836C15.1141 21.2468 12.8226 23.8338 11.0443 26.7786C8.98476 29.5858 7.58597 32.6683 6.10987 35.7163C4.77434 38.7643 3.69889 41.8812 2.82026 44.9085C1.15437 50.9771 0.409284 56.7429 0.121092 61.6761C-0.117897 66.6163 0.0226846 70.7239 0.317906 73.6963C0.423342 75.0999 0.620157 76.4622 0.760738 77.4048L0.936464 78.5607L1.11922 78.5194C2.36942 84.2359 5.24742 89.4891 9.42031 93.6714C13.5932 97.8536 18.8904 100.794 24.6992 102.152C30.5081 103.511 36.5911 103.232 42.2446 101.348C47.8982 99.4632 52.8912 96.0507 56.6462 91.5047C60.4011 86.9588 62.7646 81.4651 63.463 75.6592C64.1615 69.8533 63.1665 63.9725 60.5932 58.6971C58.0198 53.4216 53.9732 48.9671 48.9215 45.8487C43.8698 42.7304 38.0195 41.0758 32.0472 41.0761ZM109.367 41.0761C107.8 41.0761 106.295 41.3101 104.798 41.5234C105.283 39.9271 105.782 38.3033 106.584 36.8447C107.385 34.7255 108.636 32.8884 109.88 31.0376C110.92 29.0354 112.755 27.68 114.105 25.9667C115.517 24.3017 117.443 23.1939 118.969 21.8109C120.466 20.3661 122.427 19.6436 123.987 18.6253C125.618 17.7102 127.038 16.6988 128.556 16.2172L132.345 14.6897L135.677 13.3343L132.268 0L128.071 0.990779C126.729 1.32104 125.091 1.70634 123.228 2.16733C121.323 2.51135 119.292 3.45397 117.029 4.31403C114.8 5.29793 112.207 5.95157 109.803 7.52719C107.385 9.02712 104.594 10.2794 102.134 12.2884C99.7512 14.3594 96.8763 16.1552 94.7536 18.7836C92.434 21.2468 90.1425 23.8338 88.3641 26.7786C86.3046 29.5858 84.9058 32.6683 83.4297 35.7163C82.0942 38.7643 81.0187 41.8812 80.1401 44.9085C78.4742 50.9771 77.7291 56.7429 77.4409 61.6761C77.202 66.6163 77.3425 70.7239 77.6378 73.6963C77.7432 75.0999 77.94 76.4622 78.0806 77.4048L78.2563 78.5607L78.4391 78.5194C79.6893 84.2359 82.5673 89.4891 86.7402 93.6714C90.913 97.8536 96.2103 100.794 102.019 102.152C107.828 103.511 113.911 103.232 119.564 101.348C125.218 99.4632 130.211 96.0507 133.966 91.5047C137.721 86.9588 140.084 81.4651 140.783 75.6592C141.481 69.8533 140.486 63.9725 137.913 58.6971C135.34 53.4216 131.293 48.9671 126.241 45.8487C121.19 42.7304 115.339 41.0758 109.367 41.0761Z" fill="#21005E"/>
</svg>
