<svg width="37" height="37" viewBox="0 0 37 37" fill="none" xmlns="http://www.w3.org/2000/svg">
<circle cx="18.5" cy="18.5" r="18" fill="#A100FF"/>
<path d="M20.2548 9.76689C21.9853 9.76689 23.7119 9.76295 25.4424 9.76689C26.3451 9.77083 27.035 10.3226 27.2084 11.1739C27.24 11.3198 27.24 11.4735 27.24 11.6233C27.24 15.0483 27.2439 18.4694 27.24 21.8944C27.24 23.0295 26.5028 23.7586 25.3636 23.7586C21.9459 23.7586 18.5283 23.7586 15.1145 23.7586C13.995 23.7586 13.25 23.0177 13.25 21.9023C13.25 18.4772 13.25 15.0562 13.25 11.6311C13.25 10.5079 13.9832 9.77083 15.1067 9.76689C16.8214 9.76689 18.5401 9.76689 20.2548 9.76689ZM25.4897 11.5287C24.0194 11.5287 22.5766 11.5287 21.1378 11.5287C21.1378 13.8541 21.1378 16.1676 21.1378 18.5048C21.8789 18.0634 22.5963 17.6338 23.3098 17.2042C24.0391 17.6377 24.7565 18.0674 25.4897 18.5048C25.4897 16.1558 25.4897 13.8462 25.4897 11.5287Z" fill="white"/>
<path d="M17.149 27.2544C15.2884 27.2544 13.4317 27.2584 11.5711 27.2544C10.6605 27.2544 9.96279 26.6987 9.78935 25.8395C9.76175 25.7055 9.75781 25.5676 9.75781 25.4335C9.75781 21.6932 9.75781 17.9568 9.75781 14.2204C9.75781 13.6568 10.1205 13.2627 10.629 13.2666C11.0862 13.2666 11.4686 13.6253 11.4962 14.0825C11.5002 14.1692 11.5002 14.2598 11.5002 14.3505C11.5002 17.7203 11.5002 21.0863 11.5002 24.4561C11.5002 25.1892 11.8313 25.5163 12.5684 25.5163C15.9703 25.5163 19.3762 25.5163 22.7781 25.5163C23.2866 25.5163 23.6177 25.7528 23.7281 26.1903C23.8542 26.6908 23.4876 27.2072 22.9752 27.2505C22.8884 27.2584 22.7978 27.2584 22.7071 27.2584C20.8544 27.2544 19.0017 27.2544 17.149 27.2544Z" fill="white"/>
</svg>
