<svg width="37" height="37" viewBox="0 0 37 37" fill="none" xmlns="http://www.w3.org/2000/svg">
<circle cx="18.5" cy="18.5" r="18" fill="#A100FF"/>
<path d="M18.3297 25.3528C15.7937 25.3528 13.2576 25.3528 10.7216 25.3528C9.67657 25.3528 8.88007 24.7538 8.64431 23.8044C8.59971 23.6132 8.57422 23.4093 8.57422 23.2182C8.57422 19.6753 8.57422 16.1389 8.57422 12.6024C8.57422 11.3344 9.44718 10.4615 10.7216 10.4551C15.8064 10.4551 20.8913 10.4551 25.9825 10.4551C27.2505 10.4551 28.1171 11.3344 28.1171 12.6088C28.1171 16.1453 28.1171 19.6817 28.1171 23.2182C28.1171 24.4734 27.2441 25.3464 25.9825 25.3528C23.4337 25.3591 20.8849 25.3528 18.3297 25.3528ZM23.7459 17.8975C23.7395 14.9091 21.3373 12.5132 18.3488 12.5132C15.3604 12.5132 12.9518 14.9218 12.9518 17.9039C12.9518 20.8988 15.3667 23.3137 18.3616 23.3074C21.35 23.2946 23.7523 20.886 23.7459 17.8975Z" fill="white"/>
<path d="M16.8231 17.8922C16.8231 17.3124 16.8231 16.7325 16.8231 16.1527C16.8231 15.9106 16.8932 15.713 17.1163 15.592C17.3393 15.4709 17.5368 15.5282 17.7407 15.662C18.6009 16.2419 19.4675 16.8154 20.3277 17.4016C20.7674 17.7011 20.761 18.1153 20.3214 18.4147C19.4675 18.9882 18.6073 19.5617 17.7535 20.1352C17.5496 20.2754 17.3456 20.3455 17.1099 20.2116C16.8805 20.0842 16.8231 19.8739 16.8231 19.6254C16.8231 19.0519 16.8168 18.4721 16.8231 17.8922Z" fill="white"/>
</svg>
