<svg width="24" height="24" viewBox="0 0 24 24" fill="none" xmlns="http://www.w3.org/2000/svg">
<path d="M22.5 11.25H12.75C12.3 11.25 12 10.95 12 10.5V2.475C12 2.1 12.3 1.8 12.6 1.725L22.35 0C22.575 0 22.8 0 22.95 0.15C23.175 0.3 23.25 0.525 23.25 0.75V10.5C23.25 10.95 22.95 11.25 22.5 11.25Z" fill="#00ADEF"/>
<path d="M9.75 11.25H0.75C0.3 11.25 0 10.95 0 10.5V4.5C0 4.125 0.3 3.825 0.6 3.75L9.6 2.25C9.825 2.25 10.05 2.25 10.2 2.4C10.425 2.55 10.5 2.775 10.5 3V10.5C10.5 10.95 10.2 11.25 9.75 11.25Z" fill="#00ADEF"/>
<path d="M22.5 24C22.425 24 22.425 24 22.35 24L12.6 22.275C12.225 22.2 12 21.9 12 21.525V13.5C12 13.05 12.3 12.75 12.75 12.75H22.5C22.95 12.75 23.25 13.05 23.25 13.5V23.25C23.25 23.475 23.175 23.7 22.95 23.85C22.875 23.925 22.65 24 22.5 24Z" fill="#00ADEF"/>
<path d="M9.75 21.75C9.675 21.75 9.675 21.75 9.6 21.75L0.6 20.25C0.3 20.175 0 19.875 0 19.5V13.5C0 13.05 0.3 12.75 0.75 12.75H9.75C10.2 12.75 10.5 13.05 10.5 13.5V21C10.5 21.225 10.425 21.45 10.2 21.6C10.125 21.675 9.9 21.75 9.75 21.75Z" fill="#00ADEF"/>
</svg>
