<svg width="24" height="24" viewBox="0 0 24 24" fill="none" xmlns="http://www.w3.org/2000/svg">
<path d="M11.0794 19.9763C11.0691 19.9894 11.0569 20.0016 11.0456 20.0138L11.0306 20.0306L11.0147 20.0447C11.0023 20.057 10.9891 20.0686 10.9753 20.0794C10.9657 20.0877 10.9557 20.0955 10.9453 20.1028L10.9172 20.1234L10.8816 20.145C10.8725 20.1509 10.8631 20.1562 10.8534 20.1609L10.8188 20.1788L10.7869 20.1928L10.7531 20.205C10.7416 20.2099 10.7297 20.214 10.7175 20.2172L10.6838 20.2266C10.6706 20.2266 10.6594 20.2331 10.6463 20.235L10.6069 20.2416L10.5741 20.2463C10.5494 20.2477 10.5247 20.2477 10.5 20.2463H6.00001C5.8011 20.2463 5.61033 20.1672 5.46968 20.0266C5.32903 19.8859 5.25001 19.6952 5.25001 19.4963C5.25001 19.2973 5.32903 19.1066 5.46968 18.9659C5.61033 18.8253 5.8011 18.7463 6.00001 18.7463H8.6897L5.15626 15.2194C4.94687 15.0104 4.78104 14.7619 4.66839 14.4883C4.55574 14.2147 4.49851 13.9215 4.50001 13.6256V8.90626C3.79301 8.72372 3.17687 8.28959 2.76706 7.68526C2.35725 7.08092 2.18191 6.34787 2.27392 5.62351C2.36592 4.89915 2.71895 4.23321 3.26683 3.75052C3.81471 3.26783 4.51983 3.00153 5.25001 3.00153C5.98019 3.00153 6.6853 3.26783 7.23318 3.75052C7.78106 4.23321 8.13409 4.89915 8.2261 5.62351C8.3181 6.34787 8.14277 7.08092 7.73296 7.68526C7.32315 8.28959 6.707 8.72372 6.00001 8.90626V13.6294C6.00084 13.8271 6.07968 14.0164 6.21938 14.1563L9.75001 17.6897V15C9.75001 14.8011 9.82903 14.6103 9.96968 14.4697C10.1103 14.329 10.3011 14.25 10.5 14.25C10.6989 14.25 10.8897 14.329 11.0303 14.4697C11.171 14.6103 11.25 14.8011 11.25 15V19.5C11.2514 19.525 11.2514 19.55 11.25 19.575C11.25 19.5853 11.25 19.5947 11.25 19.605C11.25 19.6153 11.25 19.6331 11.2434 19.6481C11.2414 19.6599 11.2386 19.6715 11.235 19.6828C11.235 19.695 11.2294 19.7072 11.2256 19.7194C11.2219 19.7316 11.2181 19.7409 11.2144 19.7522L11.2013 19.7888L11.1872 19.8178C11.1816 19.83 11.1759 19.8431 11.1694 19.8553C11.1628 19.8675 11.1591 19.8722 11.1544 19.8816L11.1319 19.9181L11.1122 19.9444L11.0794 19.9763ZM19.5 15.0938V10.3716C19.5015 10.0757 19.4443 9.7825 19.3316 9.50893C19.219 9.23535 19.0531 8.98685 18.8438 8.77783L15.3103 5.25001H18C18.1989 5.25001 18.3897 5.171 18.5303 5.03034C18.671 4.88969 18.75 4.69893 18.75 4.50001C18.75 4.3011 18.671 4.11034 18.5303 3.96968C18.3897 3.82903 18.1989 3.75001 18 3.75001H13.4831H13.4269C13.4138 3.75001 13.4006 3.75001 13.3884 3.75564H13.3538L13.3134 3.76595L13.2825 3.77345L13.245 3.78658L13.2131 3.79876L13.1803 3.81376L13.1466 3.83064C13.1366 3.83571 13.1269 3.84134 13.1175 3.84751C13.1063 3.85408 13.0941 3.86064 13.0838 3.86814C13.0737 3.87479 13.064 3.88199 13.0547 3.8897C13.0443 3.89667 13.0343 3.90418 13.0247 3.9122C13.0106 3.92345 12.9984 3.9347 12.9853 3.94689L12.9694 3.96095L12.9544 3.97783C12.9431 3.99001 12.9309 4.0022 12.9206 4.01533L12.8963 4.04814L12.8766 4.07439L12.8541 4.11095C12.8494 4.12033 12.8438 4.12876 12.8391 4.1372C12.8344 4.14564 12.8269 4.16251 12.8213 4.1747L12.8072 4.20376L12.7941 4.24033C12.7941 4.25158 12.7856 4.26189 12.7828 4.27314C12.78 4.28439 12.7763 4.29751 12.7734 4.3097C12.7699 4.32106 12.767 4.33265 12.765 4.34439C12.765 4.35939 12.765 4.37345 12.7584 4.38751C12.7519 4.40158 12.7584 4.4072 12.7538 4.41751C12.7523 4.44249 12.7523 4.46753 12.7538 4.49251V9.00001C12.7538 9.19893 12.8328 9.38969 12.9734 9.53034C13.1141 9.67099 13.3048 9.75001 13.5038 9.75001C13.7027 9.75001 13.8934 9.67099 14.0341 9.53034C14.1747 9.38969 14.2538 9.19893 14.2538 9.00001V6.31033L17.7806 9.84376C17.8503 9.91347 17.9055 9.9962 17.9431 10.0873C17.9808 10.1783 18.0001 10.2759 18 10.3744V15.0938C17.293 15.2763 16.6769 15.7104 16.2671 16.3148C15.8572 16.9191 15.6819 17.6522 15.7739 18.3765C15.8659 19.1009 16.219 19.7668 16.7668 20.2495C17.3147 20.7322 18.0198 20.9985 18.75 20.9985C19.4802 20.9985 20.1853 20.7322 20.7332 20.2495C21.2811 19.7668 21.6341 19.1009 21.7261 18.3765C21.8181 17.6522 21.6428 16.9191 21.233 16.3148C20.8232 15.7104 20.207 15.2763 19.5 15.0938Z" fill="#A100FF"/>
</svg>
