<svg width="28" height="28" viewBox="0 0 28 28" fill="none" xmlns="http://www.w3.org/2000/svg">
<g clip-path="url(#clip0_360_23683)">
<rect width="27" height="27" transform="translate(0.5 0.5)" fill="#21005E"/>
<path d="M26.022 0.605469L16.3693 11.0363L16.0865 11.3419L16.3358 11.6753L27.4992 26.6055H20.1655L12.3896 16.2058L12.0301 15.7249L11.6222 16.1656L1.96014 26.6055H0.800169L11.2278 15.3369L11.5105 15.0314L11.2612 14.6979L0.723806 0.605469H8.05916L15.2091 10.1676L15.5687 10.6485L15.9765 10.2077L24.8621 0.605469H26.022ZM3.43394 1.46361H2.43576L3.03351 2.26302L20.4434 25.5468L20.5934 25.7474H20.8439H24.7857H25.7839L25.1861 24.948L7.77619 1.66419L7.62621 1.46361H7.37576H3.43394Z" stroke="white"/>
</g>
<defs>
<clipPath id="clip0_360_23683">
<rect width="27" height="27" fill="white" transform="translate(0.5 0.5)"/>
</clipPath>
</defs>
</svg>
