<svg width="40" height="28" viewBox="0 0 40 28" fill="none" xmlns="http://www.w3.org/2000/svg">
<path d="M39.015 7.86916C38.7763 5.56394 38.2625 3.01561 36.3715 1.67641C34.907 0.637895 32.9819 0.599502 31.1847 0.601634C27.3858 0.603767 23.5847 0.60804 19.7857 0.610173C16.1317 0.614438 12.4777 0.61658 8.82369 0.620845C7.29728 0.622978 5.8135 0.503569 4.39582 1.16464C3.17853 1.73188 2.22559 2.81089 1.65212 4.01147C0.856939 5.68121 0.690663 7.57274 0.594729 9.41948C0.417785 12.7824 0.436972 16.1539 0.648026 19.5147C0.803651 21.967 1.19804 24.6774 3.09326 26.2405C4.77316 27.6245 7.14378 27.6927 9.32254 27.6949C16.2383 27.7013 23.1562 27.7077 30.074 27.7119C30.9609 27.7141 31.8861 27.697 32.79 27.5989C34.568 27.407 36.2628 26.8973 37.4055 25.5794C38.5588 24.2509 38.8552 22.402 39.03 20.6513C39.4563 16.4033 39.4521 12.1149 39.015 7.86916ZM15.7863 20.1117V8.20184L26.096 14.1557L15.7863 20.1117Z" fill="white"/>
</svg>
