<svg width="53" height="70" viewBox="0 0 53 70" fill="none" xmlns="http://www.w3.org/2000/svg">
<path d="M35.4592 65.5234H35.8251V69.9711H35.4592V65.5234Z" fill="white"/>
<path d="M34.9082 65.5234H35.0908V69.9711H34.9082V65.5234Z" fill="white"/>
<path d="M34.4487 65.5234H34.5404V69.9711H34.4487V65.5234Z" fill="white"/>
<path d="M52.6272 69.5879H52.9999V69.9993H52.6272V69.5879Z" fill="white"/>
<path d="M6.93506 65.5234H7.3002V69.9711H6.93506V65.5234Z" fill="white"/>
<path d="M12.0581 65.5234H14.2366V65.8968H12.0581C11.0585 65.8968 10.2455 66.7266 10.2455 67.7476C10.2455 68.7687 11.0585 69.5977 12.0581 69.5977H13.8714V67.934H12.6761V67.5606H14.2373V69.9711H12.0588C10.8559 69.9711 9.88037 68.9754 9.88037 67.7476C9.88037 66.5199 10.8545 65.5234 12.0581 65.5234Z" fill="white"/>
<path d="M17.5039 65.5234H17.869V69.9711H17.5039V65.5234Z" fill="white"/>
<path d="M28.1974 69.5977H31.7406V69.9711H27.3831L30.927 65.8968H27.3831V65.5234H31.7406L28.1974 69.5977Z" fill="white"/>
<path d="M40.6931 65.5234H42.8716V65.8968H40.6931C39.6935 65.8968 38.8805 66.7266 38.8805 67.7476C38.8805 68.7687 39.6935 69.5977 40.6931 69.5977H42.5065V67.934H41.3111V67.5606H42.8723V69.9711H40.6938C39.4909 69.9711 38.5154 68.9754 38.5154 67.7476C38.5154 66.5199 39.4902 65.5234 40.6931 65.5234Z" fill="white"/>
<path d="M4.35759 67.7469C4.35759 68.9747 3.38204 69.9704 2.17845 69.9704H0V65.5234H2.17845C3.38204 65.5234 4.35759 66.5184 4.35759 67.7469Z" fill="white"/>
<path d="M25.4946 67.7469C25.4946 68.9747 24.519 69.9704 23.3154 69.9704H21.137V65.5234H23.3154C24.519 65.5234 25.4946 66.5184 25.4946 67.7469Z" fill="white"/>
<path d="M50.4965 67.7469V69.9704H48.5014V67.7448H48.1355V69.9704H46.1396V67.7469C46.1396 66.5184 47.1152 65.5234 48.3181 65.5234C49.521 65.5234 50.4965 66.5184 50.4965 67.7469Z" fill="white"/>
<path d="M28.6209 14.5847C28.6209 22.6391 22.2138 29.1694 14.3114 29.1694H0V0H14.3114C22.2138 0 28.6209 6.52829 28.6209 14.5847Z" fill="white"/>
<path d="M52.2292 47.8191V62.4038H39.1216V47.8068H36.7179L36.726 62.4038H23.6104V47.8191C23.6104 39.7627 30.0174 33.2344 37.9198 33.2344C45.8221 33.2344 52.2292 39.7627 52.2292 47.8191Z" fill="white"/>
<path d="M13.8013 33.2207H18.7935L18.7814 62.3901H13.8013V33.2207Z" fill="white"/>
<path d="M6.27441 33.2207H8.77052L8.7645 62.3901H6.27441V33.2207Z" fill="white"/>
<path d="M0 33.2207H1.24806V62.3901H0V33.2207Z" fill="white"/>
<path d="M52.2301 17.1097L48.8276 14.582V6.25107L52.2301 2.86914V17.1117V17.1097Z" fill="white"/>
<path fill-rule="evenodd" clip-rule="evenodd" d="M34.3389 3.681L33.4224 0H52.1855L32.8115 23.272H28.4945L44.8659 3.681H34.3389Z" fill="white"/>
<path fill-rule="evenodd" clip-rule="evenodd" d="M23.7153 28.9917L26.3742 25.8105L52.1855 25.8597V29.1699L23.7153 28.9917Z" fill="white"/>
</svg>
