<svg width="53" height="70" viewBox="0 0 53 70" fill="none" xmlns="http://www.w3.org/2000/svg">
<path d="M35.4592 65.5234H35.8251V69.9711H35.4592V65.5234Z" fill="url(#paint0_linear_360_514)"/>
<path d="M34.9081 65.5234H35.0907V69.9711H34.9081V65.5234Z" fill="url(#paint1_linear_360_514)"/>
<path d="M34.4492 65.5234H34.5408V69.9711H34.4492V65.5234Z" fill="url(#paint2_linear_360_514)"/>
<path d="M52.627 69.5859H52.9997V69.9973H52.627V69.5859Z" fill="#21005E"/>
<path d="M6.93457 65.5234H7.29971V69.9711H6.93457V65.5234Z" fill="#21005E"/>
<path d="M12.0576 65.5234H14.2361V65.8968H12.0576C11.058 65.8968 10.245 66.7266 10.245 67.7476C10.245 68.7687 11.058 69.5977 12.0576 69.5977H13.871V67.934H12.6756V67.5606H14.2368V69.9711H12.0583C10.8554 69.9711 9.87988 68.9754 9.87988 67.7476C9.87988 66.5199 10.8541 65.5234 12.0576 65.5234Z" fill="#21005E"/>
<path d="M17.504 65.5234H17.8692V69.9711H17.504V65.5234Z" fill="#21005E"/>
<path d="M28.1973 69.5977H31.7405V69.9711H27.3829L30.9269 65.8968H27.3829V65.5234H31.7405L28.1973 69.5977Z" fill="#21005E"/>
<path d="M40.6934 65.5234H42.8718V65.8968H40.6934C39.6937 65.8968 38.8808 66.7266 38.8808 67.7476C38.8808 68.7687 39.6937 69.5977 40.6934 69.5977H42.5067V67.934H41.3114V67.5606H42.8725V69.9711H40.6941C39.4912 69.9711 38.5156 68.9754 38.5156 67.7476C38.5156 66.5199 39.4905 65.5234 40.6934 65.5234Z" fill="#21005E"/>
<path d="M4.35759 67.7469C4.35759 68.9747 3.38204 69.9704 2.17845 69.9704H0V65.5234H2.17845C3.38204 65.5234 4.35759 66.5184 4.35759 67.7469Z" fill="#21005E"/>
<path d="M25.4944 67.7469C25.4944 68.9747 24.5189 69.9704 23.3153 69.9704H21.1368V65.5234H23.3153C24.5189 65.5234 25.4944 66.5184 25.4944 67.7469Z" fill="#21005E"/>
<path d="M50.4964 67.7469V69.9704H48.5012V67.7448H48.1354V69.9704H46.1395V67.7469C46.1395 66.5184 47.1151 65.5234 48.318 65.5234C49.5209 65.5234 50.4964 66.5184 50.4964 67.7469Z" fill="#21005E"/>
<path d="M28.6209 14.5847C28.6209 22.6391 22.2138 29.1694 14.3114 29.1694H0V0H14.3114C22.2138 0 28.6209 6.52829 28.6209 14.5847Z" fill="#21005E"/>
<path d="M52.2292 47.8191V62.4038H39.1216V47.8068H36.7179L36.726 62.4038H23.6104V47.8191C23.6104 39.7627 30.0174 33.2344 37.9198 33.2344C45.8221 33.2344 52.2292 39.7627 52.2292 47.8191Z" fill="#21005E"/>
<path d="M13.8008 33.2227H18.793L18.7809 62.392H13.8008V33.2227Z" fill="#21005E"/>
<path d="M6.27441 33.2227H8.77052L8.7645 62.392H6.27441V33.2227Z" fill="#21005E"/>
<path d="M0 33.2227H1.24806V62.392H0V33.2227Z" fill="#21005E"/>
<path d="M52.2297 17.1117L48.8271 14.5839V6.25302L52.2297 2.87109V17.1137V17.1117Z" fill="url(#paint3_linear_360_514)"/>
<path fill-rule="evenodd" clip-rule="evenodd" d="M34.3384 3.681L33.4219 0H52.185L32.811 23.272H28.494L44.8655 3.681H34.3384Z" fill="url(#paint4_linear_360_514)"/>
<path fill-rule="evenodd" clip-rule="evenodd" d="M23.7148 28.9898L26.3737 25.8086L52.185 25.8578V29.168L23.7148 28.9898Z" fill="url(#paint5_linear_360_514)"/>
<defs>
<linearGradient id="paint0_linear_360_514" x1="35.6796" y1="69.9149" x2="35.2787" y2="69.8815" gradientUnits="userSpaceOnUse">
<stop stop-color="#21005E"/>
<stop offset="0.998885" stop-color="#A100FF"/>
</linearGradient>
<linearGradient id="paint1_linear_360_514" x1="35.0181" y1="69.9149" x2="34.817" y2="69.9066" gradientUnits="userSpaceOnUse">
<stop stop-color="#21005E"/>
<stop offset="0.998885" stop-color="#A100FF"/>
</linearGradient>
<linearGradient id="paint2_linear_360_514" x1="34.5044" y1="69.9149" x2="34.4034" y2="69.9128" gradientUnits="userSpaceOnUse">
<stop stop-color="#21005E"/>
<stop offset="0.998885" stop-color="#A100FF"/>
</linearGradient>
<linearGradient id="paint3_linear_360_514" x1="50.5284" y1="2.87109" x2="50.5284" y2="17.1137" gradientUnits="userSpaceOnUse">
<stop stop-color="#A300FF"/>
<stop offset="1" stop-color="#21005E"/>
</linearGradient>
<linearGradient id="paint4_linear_360_514" x1="37.9499" y1="-2.8944e-07" x2="32.983" y2="22.9037" gradientUnits="userSpaceOnUse">
<stop stop-color="#A100FF"/>
<stop offset="0.705117" stop-color="#21005E"/>
</linearGradient>
<linearGradient id="paint5_linear_360_514" x1="52.2533" y1="29.0861" x2="26.317" y2="26.423" gradientUnits="userSpaceOnUse">
<stop stop-color="#A100FF"/>
<stop offset="1" stop-color="#21005E"/>
</linearGradient>
</defs>
</svg>
