<svg width="346" height="480" viewBox="0 0 346 480" fill="none" xmlns="http://www.w3.org/2000/svg">
<path d="M304.531 477.9C361.781 407.018 324.117 285.155 263.929 224.31C194.56 154.2 112.028 182.069 77.2344 111.386C45.4642 46.9025 98.0003 -9.28452 71.7981 -53.9508C47.7158 -94.9984 -36.5254 -115.53 -285.82 -43.0014" stroke="url(#paint0_linear_752_60837)" stroke-width="0.675929" stroke-miterlimit="10"/>
<path d="M-289.173 -31.7908C-43.2882 -103.071 42.2743 -83.7534 68.2952 -43.6613C87.5424 -13.9105 69.9701 21.6172 67.842 61.444C66.4513 81.6386 70.111 101.306 78.4927 118.681C105.91 175.63 162.22 171.089 220.228 204.3C235.054 212.727 248.634 222.981 260.689 234.85C322.165 294.941 364.453 410.586 310.795 480.453" stroke="url(#paint1_linear_752_60837)" stroke-width="0.675929" stroke-miterlimit="10"/>
<path d="M-292.484 -20.5912C-50.0212 -90.6121 36.8224 -72.5278 64.7029 -33.451C85.1947 -4.72409 69.4555 30.1434 68.4338 68.9825C67.6575 89.037 71.4982 108.496 79.6629 125.876C106.243 182.428 159.42 180.886 216.954 214.863C231.603 223.471 245.144 233.675 257.359 245.311C319.919 304.863 367.048 414.064 316.981 482.915" stroke="url(#paint2_linear_752_60837)" stroke-width="0.675929" stroke-miterlimit="10"/>
<path d="M-295.789 -9.42721C-56.801 -78.1763 31.3416 -61.2846 61.154 -23.2151C82.8874 4.52956 68.9651 38.6749 69.0675 76.5673C68.8911 96.4542 72.8993 115.699 80.8365 133.076C106.619 189.272 156.586 190.627 213.683 225.433C228.19 234.199 241.717 244.355 254.096 255.776C317.853 314.659 369.698 417.536 323.223 485.371" stroke="url(#paint3_linear_752_60837)" stroke-width="0.675929" stroke-miterlimit="10"/>
<path d="M-299.147 1.79698C-63.5469 -65.7251 25.8334 -50.0445 57.6068 -12.9522C80.5415 13.7908 68.4845 47.2644 69.735 84.1675C70.1605 103.899 74.3489 122.961 82.0809 140.354C107.066 196.194 153.841 200.486 210.531 236.129C224.842 245.059 238.315 255.156 250.83 266.331C315.793 324.555 372.344 421.118 329.47 487.947" stroke="url(#paint4_linear_752_60837)" stroke-width="0.675929" stroke-miterlimit="10"/>
<path d="M-302.522 12.953C-70.3041 -53.2903 21.4428 -39.8302 54.0694 -2.70653C77.3896 23.7622 68.081 55.7717 70.3704 91.7521C71.4099 111.307 75.7788 130.183 83.2949 147.594C107.482 203.078 151.046 210.288 207.251 246.709C221.404 255.783 234.85 265.827 247.507 276.777C313.723 334.3 374.945 424.581 335.651 490.405" stroke="url(#paint5_linear_752_60837)" stroke-width="0.675929" stroke-miterlimit="10"/>
<path d="M-305.813 24.1979C-77.0655 -40.8361 14.7326 -27.5028 50.5758 7.47351C75.7491 32.3131 67.6268 64.3626 71.0017 99.356C72.647 118.719 77.1936 137.416 84.4949 154.844C107.885 209.972 148.277 220.119 204.006 257.327C217.988 266.56 231.403 276.559 244.198 287.283C311.62 344.148 377.593 428.072 341.857 492.913" stroke="url(#paint6_linear_752_60837)" stroke-width="0.675929" stroke-miterlimit="10"/>
<path d="M-309.15 35.3984C-83.8416 -28.4171 9.23594 -16.2964 46.9712 17.7884C73.3713 41.563 67.2961 72.8821 71.6583 106.944C73.9093 126.098 78.6421 144.617 85.7429 162.057C108.314 216.829 145.513 229.935 200.809 267.908C213.662 276.758 227.141 286.438 240.948 297.741C309.621 353.926 380.211 431.602 348.089 495.405" stroke="url(#paint7_linear_752_60837)" stroke-width="0.675929" stroke-miterlimit="10"/>
<path d="M-312.489 46.6018C-90.5826 -15.9341 3.61373 -4.96814 43.4449 28.0097C70.9804 50.8267 66.9619 81.4253 72.3436 114.544C75.2054 133.485 80.1167 151.847 86.9955 169.324C108.769 223.741 142.789 239.752 197.606 278.555C210.372 287.585 223.799 297.257 237.701 308.275C307.526 363.699 382.838 435.123 354.318 497.9" stroke="url(#paint8_linear_752_60837)" stroke-width="0.675929" stroke-miterlimit="10"/>
<path d="M-315.801 57.7932C-97.3261 -3.49327 -1.98043 6.32719 39.8776 38.2837C68.5276 60.144 66.6591 90.0292 72.9524 122.116C76.4152 140.824 81.4998 159.031 88.1522 176.542C109.137 230.613 139.965 249.562 194.373 289.109C207.004 298.268 220.441 307.95 234.425 318.695C305.604 373.455 385.537 438.568 360.598 500.34" stroke="url(#paint9_linear_752_60837)" stroke-width="0.675929" stroke-miterlimit="10"/>
<path d="M-319.145 68.9989C-104.09 8.95107 -7.60794 17.6578 36.3042 48.5088C66.0574 69.4231 66.3227 98.533 73.5599 129.711C77.6382 148.169 82.9085 166.225 89.3398 183.773C109.518 237.477 137.165 259.352 191.06 299.761C203.582 309.123 217.001 318.764 231.047 329.235C303.511 383.262 388.073 442.116 366.745 502.892" stroke="url(#paint10_linear_752_60837)" stroke-width="0.675929" stroke-miterlimit="10"/>
<path d="M-322.47 80.1941C-110.838 21.4057 -13.1981 28.9979 32.7971 58.7735C63.652 78.7627 66.0833 107.086 74.2257 137.314C78.9114 154.686 83.8025 172.383 90.5841 191.032C109.976 244.369 134.42 269.194 187.859 310.39C200.264 319.922 213.676 329.532 227.813 339.761C301.563 393.053 390.763 445.658 373.005 505.419" stroke="url(#paint11_linear_752_60837)" stroke-width="0.675929" stroke-miterlimit="10"/>
<path d="M-325.812 91.3996C-117.635 33.9032 -18.8939 40.2996 29.2344 69.0293C61.2021 88.0826 65.851 115.627 74.8665 144.918C80.1846 162.204 85.2844 179.759 91.7937 198.282C110.354 251.296 131.641 279.005 184.624 321.008C196.901 330.722 210.314 340.311 224.505 350.236C299.553 402.763 393.379 449.151 379.201 507.907" stroke="url(#paint12_linear_752_60837)" stroke-width="0.675929" stroke-miterlimit="10"/>
<path d="M-329.174 102.57C-124.364 46.3 -24.4962 51.708 25.6699 79.2703C58.7169 97.4201 65.6282 124.143 75.4943 152.518C81.4769 169.707 86.7647 187.12 92.9516 205.488C110.757 258.123 128.8 288.782 181.365 331.634C193.546 341.518 206.941 351.066 221.192 360.739C297.571 412.489 396.012 452.649 385.415 510.399" stroke="url(#paint13_linear_752_60837)" stroke-width="0.675929" stroke-miterlimit="10"/>
<path d="M-332.466 113.789C-131.107 58.7477 -30.178 63.0759 22.1371 89.5188C56.2842 106.764 65.4595 132.645 76.1456 160.095C82.8039 177.176 88.2766 194.488 94.2202 212.761C111.209 265.02 126.09 298.626 178.15 342.235C190.839 352.618 204.129 362.284 217.968 371.195C295.602 422.201 398.663 456.206 391.65 512.89" stroke="url(#paint14_linear_752_60837)" stroke-width="0.675929" stroke-miterlimit="10"/>
<path d="M-335.802 124.992C-137.864 71.2109 -35.7521 74.4965 18.562 99.7317C53.798 116.084 65.2694 141.11 76.8015 167.707C84.1467 184.669 89.7849 201.861 95.4352 220.01C111.636 271.922 123.315 308.456 174.902 352.832C187.41 363.368 200.681 373.011 214.631 381.701C293.696 431.854 401.275 459.687 397.926 515.362" stroke="url(#paint15_linear_752_60837)" stroke-width="0.675929" stroke-miterlimit="10"/>
<path d="M-339.139 136.189C-144.622 83.6462 -41.4062 85.9859 15.0535 110.008C51.3365 125.468 65.1588 149.608 77.448 175.281C85.4915 192.114 91.2614 209.217 96.6394 227.241C112.033 278.787 120.541 318.257 171.69 363.462C184.033 374.137 197.298 383.748 211.367 392.208C291.7 441.565 403.903 463.202 404.1 517.904" stroke="url(#paint16_linear_752_60837)" stroke-width="0.675929" stroke-miterlimit="10"/>
<path d="M-342.47 147.405C-151.43 96.1551 -47.1082 97.3717 11.4908 120.264C48.8917 134.862 65.0373 158.063 78.0791 182.876C86.882 199.598 92.7545 216.583 97.8489 234.491C112.467 285.66 117.751 328.08 168.444 374.092C180.627 384.898 193.888 394.477 208.067 402.715C289.746 451.242 406.538 466.715 410.316 520.413" stroke="url(#paint17_linear_752_60837)" stroke-width="0.675929" stroke-miterlimit="10"/>
<path d="M-345.807 158.593C-158.181 108.498 -52.7702 108.821 7.90842 130.545C46.3854 144.28 64.8768 166.521 78.6568 190.527C88.1176 207.1 94.1928 224.025 98.9955 241.788C112.793 292.622 114.908 337.958 165.168 384.736C177.191 395.672 190.45 405.222 204.738 413.236C287.773 460.922 409.147 470.336 416.491 522.946" stroke="url(#paint18_linear_752_60837)" stroke-width="0.675929" stroke-miterlimit="10"/>
<path d="M-349.139 169.797C-164.895 121.002 -58.417 120.297 4.40046 140.756C43.9842 153.639 64.8341 174.888 79.3749 198.064C89.6238 214.422 95.7424 231.325 100.26 248.994C113.25 299.462 112.185 347.725 161.966 395.332C173.821 406.404 187.081 415.926 201.482 423.709C285.897 470.512 411.812 473.732 422.761 525.409" stroke="url(#paint19_linear_752_60837)" stroke-width="0.675929" stroke-miterlimit="10"/>
<defs>
<linearGradient id="paint0_linear_752_60837" x1="178.451" y1="54.633" x2="-13.6821" y2="239.632" gradientUnits="userSpaceOnUse">
<stop stop-color="#948BFF"/>
<stop offset="1" stop-color="#2C2399" stop-opacity="0"/>
</linearGradient>
<linearGradient id="paint1_linear_752_60837" x1="175.277" y1="65.9724" x2="-16.8843" y2="250.998" gradientUnits="userSpaceOnUse">
<stop stop-color="#948BFF"/>
<stop offset="1" stop-color="#2C2399" stop-opacity="0"/>
</linearGradient>
<linearGradient id="paint2_linear_752_60837" x1="172.128" y1="77.2187" x2="-20.0938" y2="262.303" gradientUnits="userSpaceOnUse">
<stop stop-color="#948BFF"/>
<stop offset="1" stop-color="#2C2399" stop-opacity="0"/>
</linearGradient>
<linearGradient id="paint3_linear_752_60837" x1="169.058" y1="88.3991" x2="-23.2777" y2="273.593" gradientUnits="userSpaceOnUse">
<stop stop-color="#948BFF"/>
<stop offset="1" stop-color="#2C2399" stop-opacity="0"/>
</linearGradient>
<linearGradient id="paint4_linear_752_60837" x1="166.083" y1="99.555" x2="-26.4854" y2="284.973" gradientUnits="userSpaceOnUse">
<stop stop-color="#948BFF"/>
<stop offset="1" stop-color="#2C2399" stop-opacity="0"/>
</linearGradient>
<linearGradient id="paint5_linear_752_60837" x1="163.174" y1="110.514" x2="-29.7352" y2="296.26" gradientUnits="userSpaceOnUse">
<stop stop-color="#948BFF"/>
<stop offset="1" stop-color="#2C2399" stop-opacity="0"/>
</linearGradient>
<linearGradient id="paint6_linear_752_60837" x1="160.381" y1="121.482" x2="-32.9247" y2="307.61" gradientUnits="userSpaceOnUse">
<stop stop-color="#948BFF"/>
<stop offset="1" stop-color="#2C2399" stop-opacity="0"/>
</linearGradient>
<linearGradient id="paint7_linear_752_60837" x1="157.581" y1="132.418" x2="-36.1354" y2="318.942" gradientUnits="userSpaceOnUse">
<stop stop-color="#948BFF"/>
<stop offset="1" stop-color="#2C2399" stop-opacity="0"/>
</linearGradient>
<linearGradient id="paint8_linear_752_60837" x1="154.957" y1="143.186" x2="-39.348" y2="330.276" gradientUnits="userSpaceOnUse">
<stop stop-color="#948BFF"/>
<stop offset="1" stop-color="#2C2399" stop-opacity="0"/>
</linearGradient>
<linearGradient id="paint9_linear_752_60837" x1="152.387" y1="153.905" x2="-42.539" y2="341.593" gradientUnits="userSpaceOnUse">
<stop stop-color="#948BFF"/>
<stop offset="1" stop-color="#2C2399" stop-opacity="0"/>
</linearGradient>
<linearGradient id="paint10_linear_752_60837" x1="149.937" y1="164.492" x2="-45.7618" y2="352.924" gradientUnits="userSpaceOnUse">
<stop stop-color="#948BFF"/>
<stop offset="1" stop-color="#2C2399" stop-opacity="0"/>
</linearGradient>
<linearGradient id="paint11_linear_752_60837" x1="147.644" y1="174.974" x2="-48.9473" y2="364.265" gradientUnits="userSpaceOnUse">
<stop stop-color="#948BFF"/>
<stop offset="1" stop-color="#2C2399" stop-opacity="0"/>
</linearGradient>
<linearGradient id="paint12_linear_752_60837" x1="145.444" y1="185.313" x2="-52.1724" y2="375.592" gradientUnits="userSpaceOnUse">
<stop stop-color="#948BFF"/>
<stop offset="1" stop-color="#2C2399" stop-opacity="0"/>
</linearGradient>
<linearGradient id="paint13_linear_752_60837" x1="143.384" y1="195.501" x2="-55.3991" y2="386.903" gradientUnits="userSpaceOnUse">
<stop stop-color="#948BFF"/>
<stop offset="1" stop-color="#2C2399" stop-opacity="0"/>
</linearGradient>
<linearGradient id="paint14_linear_752_60837" x1="141.554" y1="205.534" x2="-58.5797" y2="398.237" gradientUnits="userSpaceOnUse">
<stop stop-color="#948BFF"/>
<stop offset="1" stop-color="#2C2399" stop-opacity="0"/>
</linearGradient>
<linearGradient id="paint15_linear_752_60837" x1="139.908" y1="215.373" x2="-61.7848" y2="409.576" gradientUnits="userSpaceOnUse">
<stop stop-color="#948BFF"/>
<stop offset="1" stop-color="#2C2399" stop-opacity="0"/>
</linearGradient>
<linearGradient id="paint16_linear_752_60837" x1="138.479" y1="224.984" x2="-64.996" y2="420.904" gradientUnits="userSpaceOnUse">
<stop stop-color="#948BFF"/>
<stop offset="1" stop-color="#2C2399" stop-opacity="0"/>
</linearGradient>
<linearGradient id="paint17_linear_752_60837" x1="142.584" y1="229.282" x2="-68.2064" y2="432.246" gradientUnits="userSpaceOnUse">
<stop stop-color="#948BFF"/>
<stop offset="1" stop-color="#2C2399" stop-opacity="0"/>
</linearGradient>
<linearGradient id="paint18_linear_752_60837" x1="147.179" y1="233.085" x2="-71.4174" y2="443.564" gradientUnits="userSpaceOnUse">
<stop stop-color="#948BFF"/>
<stop offset="1" stop-color="#2C2399" stop-opacity="0"/>
</linearGradient>
<linearGradient id="paint19_linear_752_60837" x1="152.129" y1="236.567" x2="-74.6229" y2="454.899" gradientUnits="userSpaceOnUse">
<stop stop-color="#948BFF"/>
<stop offset="1" stop-color="#2C2399" stop-opacity="0"/>
</linearGradient>
</defs>
</svg>
