<svg width="1320" height="460" viewBox="0 0 1320 460" fill="none" xmlns="http://www.w3.org/2000/svg">
<path d="M1340 52.3442V369.691C1333.68 327.212 1307.16 230.758 1251.59 184.78C1182.12 127.308 1072.46 119.312 1035.72 233.257C998.972 347.202 980.748 554.103 897.5 607.577C814.252 661.051 578.5 635.5 537.952 607.577C457.667 552.289 505.801 392.68 457.575 369.691C418.994 351.3 232.137 450.652 143.53 502.627L179.5 547.5L94.5 593L0 482.637V108.317C3.6361 198.607 30.3136 379.986 107.935 383.185C204.961 387.183 340.454 231.758 479.392 200.773C618.329 169.788 427.721 493.132 670 502.627C912.279 512.123 873.813 498.629 923.188 184.78C962.687 -66.2987 1217.52 -8.1267 1340 52.3442Z" fill="url(#paint0_linear_752_60948)"/>
<defs>
<linearGradient id="paint0_linear_752_60948" x1="670" y1="-6.33884e-06" x2="617.54" y2="519.894" gradientUnits="userSpaceOnUse">
<stop stop-color="#A100FF"/>
<stop offset="0.705117" stop-color="#21005E"/>
</linearGradient>
</defs>
</svg>
